<?xml version="1.0" encoding="utf-8"?>
<!-- Generator: Adobe Illustrator 18.1.1, SVG Export Plug-In . SVG Version: 6.00 Build 0)  -->
<svg version="1.1" id="Layer_1" xmlns="http://www.w3.org/2000/svg" xmlns:xlink="http://www.w3.org/1999/xlink" x="0px" y="0px"
	 viewBox="0 0 550.1 464.4" enable-background="new 0 0 550.1 464.4" xml:space="preserve">
<g>
	<path fill="#8B3698" d="M290.7,208.9c46.7,0.3,83.2,37.3,84,82.3c0.8,47.1-36.2,85.6-82.5,86.2c-46.5,0.6-85.1-36.5-85.7-82.3
		C206,247.2,242.8,209.5,290.7,208.9z M355.2,277c0.1,0.3-0.1,1,0.4,0.9c0.3,0,0.2-0.7-0.2-1.1c-0.1-1.2-0.1-2.5-0.4-3.7
		c-7.9-37.7-42.2-61.4-80.5-55.5c-38.3,5.9-65,44.6-57,82.7c7.3,34.5,36.9,57.7,72.2,56.4c16.1-0.6,28.7-7.5,37.3-21.3
		c6.2-9.9,10-25.4,9.3-37.4c-2.4,4.3-5.4,7.9-9,10.9c-15.8,12.9-40.4,12-49.7-10.5c-6.7-16.3-6-33,0.5-49.2
		c3.8-9.5,11.3-15.1,21.5-16.8c9.4-1.6,17.6,1.5,25.1,6.8c11.5,8.2,19.9,19.1,26.9,31.2C352.8,272.6,354,274.8,355.2,277z
		 M304.6,288.1c4.5,0,12.1-3.5,15-7c2-2.4,2.6-5.2,1.4-8.1c-2.2-5.7-6.7-9-12.4-10.4c-6.4-1.6-11.8,1.6-13.8,7.9
		c-1.7,5.4-0.4,10.1,3,14.3C299.4,287,301.7,288.2,304.6,288.1z"/>
	<path fill="#01B7CC" d="M278.9,198.9c0.3,1.9-1.4,1.6-2.3,1.8c-5.9,1.1-11.7,2.4-17.4,4.4c-2,0.7-4,1.3-5.9,2.3
		c-1.8,0.9-2.4,0.6-3.1-1.3c-6.6-17.7-13.4-35.4-20.1-53.1C215,113,199.8,73.1,184.7,33.3c-0.7-2-0.9-2.7,1.6-3.1
		c17.7-2.5,35.4-5.1,53.1-7.7c9-1.3,18-2.5,26.9-3.9c2.1-0.3,2.6,0.2,2.7,2.1c0.7,13.7,1.5,27.5,2.2,41.2
		c1.2,20.6,2.3,41.2,3.5,61.8c0.8,13.8,1.5,27.6,2.3,41.4c0.6,11,1.2,22,1.9,33C278.9,198.4,278.9,198.6,278.9,198.9z"/>
	<path fill="#F9B131" d="M470.4,124.1c2,8.5,3.9,16.6,5.9,24.8c6.7,28.6,13.3,57.2,20,85.8c0.5,2.2-0.3,2.7-2.1,3.1
		c-37.3,8.7-74.7,17.5-112,26.3c-1.6,0.4-2.5,0.4-3.1-1.5c-4.1-12.7-11.2-23.7-20.1-33.5c-1.2-1.3-1.1-1.9,0.1-3.1
		c31.8-29.2,63.6-58.4,95.4-87.6c4.5-4.1,9-8.2,13.4-12.3C468.7,125.4,469.4,124.9,470.4,124.1z"/>
	<path fill="#8B3598" d="M530.9,287.7c0,15,0,30,0,45c0,2-0.3,2.5-2.5,2.1c-27.4-3.9-54.8-7.6-82.1-11.4c-20.5-2.8-41-5.7-61.5-8.5
		c-2.3-0.3-3.2-0.8-2.5-3.5c2.8-11.4,2.9-22.9,0.5-34.3c-0.4-2-0.1-2.8,2.1-3.3c20.2-4.6,40.3-9.2,60.5-13.8
		c27.9-6.4,55.7-12.8,83.6-19.2c3.1-0.7,3.1-0.7,3.1,2.5c0,14.8,0,29.6,0,44.4C531.6,287.7,531.2,287.7,530.9,287.7z"/>
	<path fill="#E3463D" d="M458.4,104.8c-0.4,0.5-0.9,1-1.4,1.6c-16.8,18.5-33.7,37.1-50.5,55.6c-17.6,19.4-35.2,38.7-52.8,58.2
		c-1.4,1.6-2.3,1.9-4.1,0.4c-5.8-4.8-12-9-18.9-12c-2.1-0.9-1.7-1.9-1.1-3.4c9.4-25.9,18.7-51.8,28-77.7
		c8.6-23.8,17.1-47.5,25.6-71.3c0.8-2.2,1.2-2.5,3.3-1.1c23.4,16.1,46.8,32.1,70.2,48.2C457.3,103.6,458.1,103.8,458.4,104.8z"/>
	<path fill="#812F93" d="M102.1,100.8c0.5,0.8,1,1.6,1.6,2.2c34.5,34.9,69,69.9,103.5,104.8c5.5,5.6,11,11.2,16.6,16.7
		c1.1,1.1,1.5,1.7,0.2,3.1c-4.7,4.6-8.6,9.8-12.1,15.3c-1.1,1.8-1.9,2-3.8,0.9c-48.5-28.3-97.1-56.4-145.6-84.6
		c-3.5-2-7-4.1-10.5-6.1c-1.3-0.7-1.7-1.2-0.4-2.4c16.4-16.1,32.7-32.3,49.1-48.5C100.8,101.8,101.2,101.5,102.1,100.8z"/>
	<path fill="#FCAE45" d="M213.6,346.4c-0.2,0.9-0.9,1.2-1.4,1.6c-23.2,17-46.5,34.1-69.7,51.1c-21.7,15.9-43.4,31.7-65,47.7
		c-1.8,1.3-2.6,1.3-3.9-0.5c-12.6-17.1-25.3-34.1-38-51.1c-1.6-2.1-0.3-2.4,1.2-3c23.9-10,47.7-20.1,71.5-30.1
		c29.9-12.6,59.8-25.3,89.8-37.9c0.2-0.1,0.5-0.2,0.7-0.3c3.1-1.3,3-1.3,4.1,1.8c2.4,6.7,5.5,13,9.5,18.8
		C212.8,345.1,213.2,345.8,213.6,346.4z"/>
	<path fill="#01B9D7" d="M41.3,270.6c8.2,0.8,15.9,1.6,23.6,2.3c13,1.3,25.9,2.7,38.9,4c15.2,1.5,30.3,3.1,45.5,4.6
		c14.7,1.5,29.4,3,44.1,4.4c3.8,0.4,3.8,0.3,3.7,4.1c-0.2,7,0.3,13.9,1.8,20.7c0.5,2,0.1,2.7-1.9,3.2c-23.8,6.1-47.5,12.3-71.2,18.5
		c-16,4.2-32,8.3-48,12.6c-1.9,0.5-2.8,0.3-3.7-1.7c-10.5-23.4-21.1-46.8-31.7-70.2C42.1,272.4,41.8,271.7,41.3,270.6z"/>
	<path fill="#98CB46" d="M351.3,80.7c-1.1,4.3-2,8.3-3,12.3c-9.1,36.1-18.3,72.3-27.4,108.5c-0.6,2.4-1.4,2.8-3.7,2.1
		c-9.3-2.7-18.9-4.4-28.6-3.9c-1.7,0.1-2.1-0.5-2.1-2.1c-0.7-17.3-1.4-34.7-2.1-52c-0.5-11.2-1-22.3-1.5-33.5
		c-0.1-1.5,0.2-2.4,1.7-3c21.7-9.2,43.4-18.5,65.1-27.8C350,81.1,350.4,81,351.3,80.7z"/>
	<path fill="#E5452C" d="M187.9,75.5c5.6,13.2,11.1,26.2,16.6,39.2c13.2,31.3,26.4,62.6,39.6,93.8c0.9,2.1,0.8,3.1-1.4,4.3
		c-4,2.2-7.8,4.9-11.2,7.9c-1.4,1.2-2,1.2-3.2-0.4c-19-24.4-38.1-48.7-57.2-73c-4.8-6.1-9.5-12.2-14.4-18.3c-0.8-1-1.1-1.7-0.4-3
		c10.3-16.5,20.5-33.1,30.7-49.6C187.3,76.1,187.5,75.8,187.9,75.5z"/>
	<path fill="#96C734" d="M239.9,372.6c-0.2,0.5-0.5,0.9-0.7,1.4c-12.8,23.5-25.7,47-38.5,70.5c-1,1.8-1.6,1.9-3.3,0.7
		c-15.1-11.1-30.3-22.1-45.5-33.1c-1.4-1-1.5-1.5-0.1-2.7c21.5-18.5,43.1-37,64.5-55.5c1.3-1.1,2.1-1.4,3.3,0.1
		c5.3,6.6,11.7,11.9,18.6,16.7C238.9,371.2,240,371.4,239.9,372.6z"/>
	<path fill="#9AC337" d="M197,279.8c-9-1.2-17.8-2.5-26.6-3.7c-15.9-2.2-31.7-4.4-47.6-6.6c-2.4-0.3-4.9-0.8-7.3-1
		c-1.9-0.1-2.1-0.9-1.8-2.5c1.8-9.8,3.6-19.6,5.3-29.3c0.5-2.7,1.1-5.3,1.4-8.1c0.2-2.3,1.1-2.6,3.2-1.9c26.2,8.6,52.5,17,78.8,25.5
		c3.4,1.1,3.4,1.1,2,4.5c-2.8,6.8-4.5,13.9-6,21C198.2,278.6,198.7,280.3,197,279.8z"/>
	<path fill="#FDFDFD" d="M355.4,276.9c0.4,0.3,0.5,1,0.2,1.1c-0.5,0.1-0.3-0.6-0.4-0.9C355.2,277,355.4,276.9,355.4,276.9z"/>
	<path fill="#8B3698" d="M263.8,259.9c-0.1,9.4-8,17.1-17.4,16.9c-9.4-0.2-17.2-8.3-17.1-17.9c0.1-9.4,8.2-17.1,17.7-16.9
		C256.5,242.3,264,250.2,263.8,259.9z"/>
</g>
</svg>
