<svg xmlns="http://www.w3.org/2000/svg" viewBox="0 0 1717.97 307.08"><defs><style>.cls-1{fill:#111;}.cls-2,.cls-4,.cls-5{fill:none;}.cls-2,.cls-5,.cls-6{stroke:#111;}.cls-2,.cls-4,.cls-5,.cls-6{stroke-linecap:round;stroke-linejoin:round;}.cls-2,.cls-4,.cls-6{stroke-width:5px;}.cls-3{fill:#6d6d6d;}.cls-4{stroke:#6d6d6d;}.cls-5{stroke-width:6px;}.cls-6{fill:#fff;}</style></defs><g id="Layer_2" data-name="Layer 2"><g id="outline_II" data-name="outline II"><g id="designer"><g id="screen"><g id="computer_screen" data-name="computer screen"><path class="cls-1" d="M977.32,277.15l20.68.44a48.21,48.21,0,0,1,23.24-15.73H959.5A130,130,0,0,0,977.32,277.15Z"/><path class="cls-1" d="M1081.27,177.93a27.83,27.83,0,0,1-6.39.45,18.67,18.67,0,0,1-13.12-6.13v78.61a10.91,10.91,0,0,1-1.64,5.77c5-.08,8.15.08,8.15.08l-2.21-11,15.21-2.22Z"/><path class="cls-1" d="M1051.27,143.38a93.58,93.58,0,0,1,.36-11.36H928.72c-1.17,3.71-2.17,7.5-3,11.34h125c.18,0,.34,0,.51,0Z"/><line class="cls-2" x1="1071.72" y1="179.13" x2="1071.72" y2="198.92"/></g><g id="layout"><polyline class="cls-2" points="955.27 257.32 955.27 152.34 1050.83 152.34 1050.83 256.96"/><rect class="cls-2" x="966.36" y="162.39" width="27" height="8.93"/><line class="cls-2" x1="966.36" y1="183.18" x2="993.36" y2="183.18"/><line class="cls-2" x1="971.64" y1="190.37" x2="989.41" y2="190.37"/><line class="cls-2" x1="971.64" y1="197.19" x2="981.05" y2="197.19"/><line class="cls-2" x1="971.64" y1="204.01" x2="977.62" y2="204.01"/><line class="cls-2" x1="971.64" y1="210.82" x2="986.45" y2="210.82"/><line class="cls-2" x1="966.36" y1="218.59" x2="993.36" y2="218.59"/><line class="cls-2" x1="971.64" y1="225.78" x2="989.41" y2="225.78"/><line class="cls-2" x1="971.64" y1="232.6" x2="981.05" y2="232.6"/><rect class="cls-2" x="1000.68" y="180.27" width="39.77" height="31.88"/><rect class="cls-2" x="1000.68" y="219.63" width="10.66" height="10.66"/><rect class="cls-2" x="1015.23" y="219.63" width="10.66" height="10.66"/><rect class="cls-2" x="1029.79" y="219.63" width="10.66" height="10.66"/><line class="cls-2" x1="1000.68" y1="168.07" x2="1013.24" y2="168.07"/><line class="cls-2" x1="1022.68" y1="168.07" x2="1039.72" y2="168.07"/><rect class="cls-2" x="1000.68" y="237.53" width="40.26" height="19.13"/><polyline class="cls-2" points="925.34 152.34 940.53 152.34 940.53 236.6"/></g></g><g id="woman"><polyline class="cls-2" points="1085.11 177.74 1094.53 186.83 1129.29 178.41 1104.01 157.49"/><path class="cls-1" d="M1169.92,227l-11.53-31.72A32.63,32.63,0,0,0,1119.82,175c-8.41,2.08-18.63,5.05-30.67,9.29-40.16,14.14-27.81,48.68-26,61.79l56.81-8.32-6,38h15.44A130.81,130.81,0,0,0,1169.92,227Z"/><g id="head"><path id="face" class="cls-2" d="M1106.68,131.83c-2.31-13.14-10.12-22.62-20-23.27-12.38-.81-36.44-9.55-35.39,34.82.15,6.13,4,34.17,23.61,35,15.95.68,26.88-11.5,30.84-25.95"/><g id="hair"><rect class="cls-3" x="1105.88" y="86.07" width="7.04" height="12.39" transform="translate(90.92 -357.15) rotate(19.06)"/><circle class="cls-1" cx="1115.34" cy="77.33" r="12.39"/><path id="hair-2" data-name="hair" class="cls-1" d="M1105.33,93.14c-10.82-4.06-22.55-6.3-33.16-2.72-32.24,12.57-33.57,36.31-20.9,47.83h0c.38-16.85,4.92-24.79,10.91-28.33,5.78,10.41,25.73,20.2,44.4,21.4l.09.51c5.16-.37,13.2.52,13.27,9.63.11,12.57-12.6,11.2-14.22,11-.64,2.33.09,3.81-.9,6l9.36,8.46,34.63-6.42a3.73,3.73,0,0,0,3.71-4.73C1148.3,140.58,1140.07,106.74,1105.33,93.14Z"/></g><path id="ear" class="cls-2" d="M1103.06,151.77l2.49.64s14.51,2.48,14.39-10.95c-.08-10.19-10.12-10.1-15-9.46"/><path id="mouth" class="cls-2" d="M1071.93,163.14s4.34,2.47,7.07-2.79"/><polyline id="nose" class="cls-2" points="1070.64 152.47 1064.79 152.87 1067.24 129.53"/><path id="eyebrow" class="cls-2" d="M1088.26,127.75s-4.35-4.12-7.92-.9"/><path id="eyebrow-2" data-name="eyebrow" class="cls-2" d="M1060.38,130.24s-4.87-3.48-8,.21"/><ellipse id="eye" class="cls-1" cx="1081.27" cy="139.25" rx="1.94" ry="3.01" transform="translate(-7.65 86.4) rotate(-4.56)"/><ellipse id="eye_II" data-name="eye II" class="cls-1" cx="1060.75" cy="140.95" rx="1.94" ry="3.01" transform="translate(-7.85 84.77) rotate(-4.56)"/><g id="glasses"><ellipse class="cls-4" cx="1085.11" cy="134.98" rx="12.34" ry="16.27" transform="translate(-7.99 106.46) rotate(-5.6)"/><ellipse class="cls-4" cx="1050.31" cy="139.09" rx="12.34" ry="16.27" transform="translate(-8.56 103.08) rotate(-5.6)"/><line class="cls-4" x1="1062.82" y1="135.47" x2="1072.57" y2="134.48"/><line class="cls-4" x1="1097.49" y1="131.25" x2="1109.01" y2="131.93"/></g></g><path class="cls-2" d="M1066.06,245.66l2.21,11s-53.47-2.65-70.27,19h120.33a9.24,9.24,0,0,0,9-11.56l-6.87-26.44Z"/><path class="cls-1" d="M1129.8,275.71H975.34a129.91,129.91,0,0,0,154.46,0Z"/></g><circle class="cls-2" cx="1052.57" cy="171.27" r="129.89"/></g><g id="thinking_woman" data-name="thinking woman"><g id="thinking_woman-2" data-name="thinking woman"><path class="cls-1" d="M252.64,184.05h.1c2.48-9.22,11.8-17.45,21.6-18.38,2.55-.24,12.52-.57,25-.9l3.19-.32-3.69-20.87h-59A40.85,40.85,0,0,0,199,184.43v54.14a131.17,131.17,0,0,0,21.55,28Z"/><path class="cls-2" d="M300.36,164.75c-12.95.33-23.4.68-26,.92-9.8.93-19.12,9.16-21.6,18.38h-.1l-31.25,80.24"/><g id="head-2" data-name="head"><g id="head-3" data-name="head"><g id="earring_back" data-name="earring back"><path class="cls-4" d="M296.26,156c-4.58.65-9.28-4.68-10.55-12a18.12,18.12,0,0,1,1.05-10.5"/><path class="cls-4" d="M351.2,146.72a20.49,20.49,0,0,1-2.09-6.17"/></g><path id="neck" class="cls-2" d="M346.15,172.52c-.4,9.25-4.49,21.52-22.25,22.17-18.29.67-29.41-14.87-36.74-28.67l15.35-1.57-5.82-33"/><path id="ear_II" data-name="ear II" class="cls-2" d="M296.78,132.05a9.12,9.12,0,0,1-8.56.46A8.81,8.81,0,0,1,283.54,121a8.54,8.54,0,0,1,7.28-4.92"/><path id="ear-2" data-name="ear" class="cls-2" d="M351.52,112.15a9.32,9.32,0,0,1,5.75.65A8.82,8.82,0,0,1,362,124.36a8.65,8.65,0,0,1-9.09,4.86"/><path id="face-2" data-name="face" class="cls-2" d="M316,155c-10.76-4.75-19.43-16.89-21.41-31.72-2.66-20,7.93-37.42,23.67-38.81s30.65,13.73,33.32,33.78c1.45,11-1.05,21.1-6.18,28.29"/><path id="nose-2" data-name="nose" class="cls-2" d="M328.3,130.51l5.43-.29a.88.88,0,0,0,.8-1.11l-4.2-14.74"/><path id="brow_II" data-name="brow II" class="cls-2" d="M312.88,106.25s4.73-4.41,8.81-.88"/><path id="brow" class="cls-2" d="M334.81,104.47s6.11-2.41,8.68,2.24"/><ellipse id="eye_II-2" data-name="eye II" class="cls-1" cx="321.02" cy="116.99" rx="3.25" ry="2.18" transform="translate(199.6 436.35) rotate(-89.21)"/><ellipse id="eye-2" data-name="eye" class="cls-1" cx="341.31" cy="117.37" rx="2.17" ry="3.26" transform="translate(-9.25 31.5) rotate(-5.21)"/><path id="mouth-2" data-name="mouth" class="cls-2" d="M329.37,141.78s-10.06,8.57-13.2-8.77Z"/><path id="hair-3" data-name="hair" class="cls-1" d="M286.69,88.8c5.65-6.31,15.94-10.76,25.19-12.29l.06-.09c59.6-11.16,50.56,24.88,50.56,24.88l-10.63-.47c2.6,6.9,2.59,13.45-.27,17.71a2.42,2.42,0,0,1,0-.25,45.73,45.73,0,0,0-6.2-17.75l-31.43-1.39c.93-4.52-3.09-8.55-6.15-10.9.06,1.78.49,23-13.61,28.62a47.32,47.32,0,0,0,.4,6.45c.08.6.18,1.2.28,1.79-.89,0-1.76-.09-2.61-.2C281.81,123.5,276.67,100,286.69,88.8Z"/><g id="earring_front" data-name="earring front"><path class="cls-4" d="M355.15,125.65c4.63-.8,9.42,4.56,10.71,12,.89,5.13-.13,9.91-2.37,12.63"/><path class="cls-4" d="M291.75,129.07c4.63-.81,9.43,4.56,10.71,12s-1.41,14.09-6,14.89l-.16,0"/></g></g></g><g id="hand"><path id="hand-2" data-name="hand" class="cls-2" d="M344.05,168.09c4.68.79,9.8,3,12.54,1.71,0,0,1.5,3.27,4.55,8.47"/><path id="hand-3" data-name="hand" class="cls-2" d="M377.39,167.1a54.87,54.87,0,0,1-5.91-6.36c-2.51-3-4.6-5.33-6.33-7.17a21.76,21.76,0,0,0-15.88-6.85c-4.61,0-10,.2-12.54.92-5,1.4-21.47,5.7-20.72,8.31.53,1.85,9.37,1.4,13.91,1"/><path id="finger_III" data-name="finger III" class="cls-2" d="M338.39,151.35s-11.09,5.47-10.61,9.66,3.83,3.27,3.83,3.27"/><path id="finger_II" data-name="finger II" class="cls-2" d="M340.44,155.85s-9.46,5.72-8.68,9.86,4.07,3,4.07,3"/><path id="finger" class="cls-2" d="M343.1,161.35s-11.26,7.06-5.08,9.77,8.38,1.41,8.38,1.41,2.62-3.29-3.94-4.74"/><path id="sleeve" class="cls-2" d="M427.52,236.89c-7.15-15.94-29.3-68.94-38.8-75.45l-31.58,20.47,42.19,90A131.6,131.6,0,0,0,427.52,236.89Z"/></g><polyline id="line" class="cls-2" points="284.49 221.05 271.45 252.48 347.06 253.96"/><path id="laptop" class="cls-1" d="M341.24,194.82a3.29,3.29,0,0,0-3.12,2.82l-13.93,73.78-18.26-.08s-2.27,15.13,13.06,15c1.81,0,30.13.09,60.22.15a131.14,131.14,0,0,0,62.92-91.84Z"/></g><path id="circle" class="cls-2" d="M385.4,63.61a130.92,130.92,0,1,0,48.48,57"/><g id="ponytail"><path class="cls-1" d="M287.21,82.27c9.61-8.34,13.23-48.34-16.54-72.62-30.13-24.58-51.28,4.65-55.89,12.28s-6.94,27.77,18.77,44.6S276.24,91.8,287.21,82.27Z"/><path class="cls-3" d="M284.78,90.33l-2.13-2.53a7.81,7.81,0,0,1,1.14-11.35l.6-.46a8.74,8.74,0,0,1,11.87,1.4L299.32,81C293.63,83.29,288.38,86.46,284.78,90.33Z"/></g><g id="bulb"><path class="cls-5" d="M391.25,80.74c.58,1,1.18,2,1.82,3,2.11,3.25,8.27,13.61,8.27,23.88V121a9.81,9.81,0,0,0,9.81,9.81h12.14A9.81,9.81,0,0,0,433.1,121V107.59c0-12.38,10.3-25.44,10.3-25.44l2.88-5.29a31,31,0,1,0-56.74.93Z"/><path class="cls-5" d="M421.47,105c-.33-15.61-.73-41,4.64-44l.07-.07a5.25,5.25,0,0,1,3.45-1.34,5.31,5.31,0,0,1,2.2,10.18l-.21.08c-1.79,1.16-5.36.81-5.36.81-19.36-.48-17.4-.49-22.41-.49l-.38-.07a5.31,5.31,0,0,1,1.27-10.47,12.39,12.39,0,0,1,2.41.58c5.55,1,6.15,13.19,5.83,17.23V105"/><line class="cls-5" x1="401.33" y1="106.75" x2="433.12" y2="106.75"/><line class="cls-5" x1="401.33" y1="114.23" x2="433.12" y2="114.23"/><line class="cls-5" x1="401.33" y1="121.71" x2="433.12" y2="121.71"/></g></g><g id="developer"><g id="man"><path class="cls-1" d="M1469.73,187.1c11.39,5.71,31.11,18.33,49.34,43.38a130.55,130.55,0,0,0,14.63-60.21c0-.83,0-1.66,0-2.49a56.79,56.79,0,0,0-28.45-7.6h-42.6C1474.73,167.23,1474.68,177.31,1469.73,187.1Z"/><g id="body"><path class="cls-1" d="M1449.48,171.42l-1.22,0,.53.6a179.82,179.82,0,0,0-36,31.4,72,72,0,0,1-15.14-29.18c-4.34,5.9-9.06,26-2.85,44.05,3.61,10.52.07,52,.07,52l17.91-.54s1.07-6.5,1.74-10.24c10.2-57.45,41.54-81.29,41.54-81.29Z"/><path class="cls-2" d="M1387.54,154.57c-12.8,6.05-14.59,17.22-14.54,25.83h0c-12.39,9.77-30.69,29.12-37.8,43.54l-20.61,43.46a131.11,131.11,0,0,0,204.48-36.92c-18.23-25-38-37.67-49.34-43.38,6.93-13.72,4.27-28-28-33.74"/><path id="shape" class="cls-1" d="M1468,185.58c-7.19,14.23-22.9,29.38-28.39,32.25,14.14-.53,43.27-16.39,48.39-19.33A153.91,153.91,0,0,0,1468,185.58Z"/><path id="shape_II" data-name="shape II" class="cls-1" d="M1375.16,187.24c0-2,0-4.59.18-7.44h0q-6.06,4.15-11.45,8.47c3.53,8.14,10.95,20.6,19.55,26.74C1381.13,209.23,1374.83,201.32,1375.16,187.24Z"/><path id="hand_II" data-name="hand II" class="cls-2" d="M1413.27,268.76l-30,3.18-7.54,20.83s32.55.2,33.14,0S1424.38,279.28,1413.27,268.76Z"/><g id="lines"><path class="cls-2" d="M1477.62,251.21s-9.91,1-12.43,14"/><path class="cls-2" d="M1436.83,214s-13.47,23.5-14.86,37.8"/><path class="cls-2" d="M1387.66,214.67s3.93,20.24,2.41,34.53"/><path class="cls-2" d="M1413.43,295.46c-4.28-1.65-5.65-3-5.65-3,5.55-8.86,0-23.54,0-23.54s1.45-.4,6-1.33,3-5.55,9.13-6.08S1481.2,267,1481.2,267"/></g><path id="welt" class="cls-1" d="M1412.71,296.07c-4.64-1.74-6.12-3.14-6.12-3.14,6-9.39,0-24.94,0-24.94s1.57-.42,6.44-1.4a5.58,5.58,0,0,0,3.7-2.55c10,11.31,4,31.17,1.32,38.37C1415.71,300.35,1416.22,297.4,1412.71,296.07Z"/></g><path id="laptop-2" data-name="laptop" class="cls-1" d="M1402.61,301.35a134.06,134.06,0,0,0,15.48-.91l-.6-.22-5.79-5.37h-19.28l-16.49-69.79a3.36,3.36,0,0,0-3.26-2.59h-90.32A131.11,131.11,0,0,0,1402.61,301.35Z"/><g id="head-4" data-name="head"><path id="ear-3" data-name="ear" class="cls-2" d="M1446.74,128.55c2.3.2,10.89,1.58,9.07,10.68-1.47,7.37-8.3,6.57-12.24,5.44"/><path id="face-3" data-name="face" class="cls-2" d="M1386.22,111.52c-1.56,11.88-.94,24.59.23,34.35"/><path id="neck-2" data-name="neck" class="cls-2" d="M1442.09,152l.48,12.79,6.22,7.14h0a179.82,179.82,0,0,0-36,31.4,71.09,71.09,0,0,1-14-25.35"/><path id="beard" class="cls-2" d="M1440,130.73c-1.93,2-7.11,13.17-8.37,18.4,0,0-12.83-4.4-31.19-4.66,0,0-10,.2-14,1.41,0,0,.86,18.52,9,28.11s25.29,6.91,33.34,1.14,9.39-8.52,11.25-14.69,6.79-29.17,6.79-29.17Z"/><path id="hair-4" data-name="hair" class="cls-1" d="M1445.16,134.69s5.51-8.52,7.64-17.38a18.29,18.29,0,0,0-9.59-20.79c-6.45-3.13-11.24-.68-11.24-.68s6.85-11.66-3.42-22a18.74,18.74,0,0,0-13.76-5.48,18,18,0,0,0-16.42,11s-13.43-24.68-41-10.07c-2.78,1.47-5.91,5.58-7.41,8.34-9.09,16.76,20.88,36.62,36.49,38.19,17.14,1.72,27.17-1.12,32.69-5.31C1415.06,113,1419.68,138.64,1445.16,134.69Z"/><ellipse id="eye_II-3" data-name="eye II" class="cls-1" cx="1392.49" cy="136.21" rx="1.65" ry="2.56"/><ellipse id="eye-3" data-name="eye" class="cls-1" cx="1407.71" cy="135.79" rx="1.65" ry="2.56"/><path id="brow_II-2" data-name="brow II" class="cls-2" d="M1416.38,125.5a7.58,7.58,0,0,0-7.18-2.82"/><path id="brow-2" data-name="brow" class="cls-2" d="M1394,122.41s-4.59-1.19-5.73,2.56"/><path id="mouth-3" data-name="mouth" class="cls-2" d="M1411.84,157.29s-.78,4.89-5.28,4.1"/><polyline id="nose-3" data-name="nose" class="cls-2" points="1399.24 137.34 1397.39 153.47 1403.08 152.02"/></g></g><path class="cls-2" d="M1479.9,64.38A130.86,130.86,0,1,0,1530.42,141"/><g id="code_lines" data-name="code lines"><rect class="cls-2" x="1480" y="42.39" width="170.41" height="97.76" rx="21.86"/><g id="code_lines-2" data-name="code lines"><g id="_" data-name="&lt;/&gt;"><path class="cls-1" d="M1509.56,62.47l10-6a1,1,0,0,1,.5-.13,1,1,0,0,1,1,1,1,1,0,0,1-.51.87L1512,63.37l8.57,5.14a1,1,0,0,1,.22,1.58,1,1,0,0,1-.71.29,1,1,0,0,1-.5-.12l-10-6a1,1,0,0,1,0-1.8Z"/><path class="cls-1" d="M1531.35,52.63a1,1,0,0,1,.7-.28.94.94,0,0,1,.71.29,1,1,0,0,1,.3.71,1,1,0,0,1-.09.42l-8,20a1.05,1.05,0,0,1-.2.27,1,1,0,0,1-.71.3,1,1,0,0,1-.71-.29,1,1,0,0,1-.3-.71,1.07,1.07,0,0,1,.09-.43l8-20A1.32,1.32,0,0,1,1531.35,52.63Z"/><path class="cls-1" d="M1547.09,63.37a1,1,0,0,1-.55.9l-10,6a1,1,0,0,1-.5.12,1,1,0,0,1-.71-.29,1,1,0,0,1,.22-1.58l8.57-5.14-8.57-5.14a1,1,0,0,1-.51-.87,1,1,0,0,1,1-1,1,1,0,0,1,.5.13l10,6A1,1,0,0,1,1547.09,63.37Z"/></g><rect class="cls-1" x="1507.19" y="90.51" width="33.54" height="6.68" rx="3.34"/><rect class="cls-1" x="1507.19" y="121.54" width="36.58" height="6.68" rx="3.34"/><rect class="cls-3" x="1516.44" y="111.21" width="56.73" height="6.68" rx="3.34"/><rect class="cls-3" x="1576.34" y="111.21" width="30.64" height="6.68" rx="3.34"/><rect class="cls-1" x="1612.47" y="100.88" width="4.88" height="6.68" rx="2.44"/><rect class="cls-1" x="1621.01" y="90.51" width="4.88" height="6.68" rx="2.44"/><rect class="cls-1" x="1507.19" y="100.86" width="58.66" height="6.68" rx="3.34"/><rect class="cls-3" x="1542.61" y="90.51" width="40.57" height="6.68" rx="3.34"/><rect class="cls-3" x="1585.76" y="90.51" width="33.54" height="6.68" rx="3.34"/><rect class="cls-3" x="1542.61" y="80.49" width="4.88" height="6.68" rx="2.44"/><rect class="cls-1" x="1507.19" y="80.49" width="33.54" height="6.68" rx="3.34"/><rect class="cls-1" x="1549.63" y="80.49" width="33.54" height="6.68" rx="3.34"/><rect class="cls-3" x="1568.47" y="100.84" width="41.38" height="6.72" rx="3.36"/></g></g></g><g id="man-2" data-name="man"><g id="cap_man" data-name="cap man"><path class="cls-1" d="M607.34,252.59c2-24.76,12.41-66,24.29-77.54a55.1,55.1,0,0,1,36.78-16l5.19-.16,3.12-8H625.64a46.33,46.33,0,0,0-46.33,46.33v52.63a131,131,0,0,0,61.31,45.25h8.63C632.78,285.82,606.09,268.2,607.34,252.59Z"/><g id="body-2" data-name="body"><path class="cls-2" d="M672.65,158.94l-4.24.13a55.1,55.1,0,0,0-36.78,16c-11.88,11.55-22.31,52.78-24.29,77.54-1.57,19.7,41.32,42.6,52.07,48q3.92.69,7.91,1.14l32.37-.29a130.65,130.65,0,0,0,92.36-58.6,217,217,0,0,0-46.21-72.59,40.79,40.79,0,0,0-27.17-12.69l-5.33.16"/><path class="cls-2" d="M627.75,236s10.76-5,25.49,5.08c0,0,16.62-28.29,14.86-43.26"/><path class="cls-2" d="M685.93,265.47c-1.59-.88-33.09-24.25-33.09-24.25"/><path class="cls-2" d="M743.38,188.54s2.65,28.06-3.3,31.69"/><polyline id="neck-3" data-name="neck" class="cls-2" points="713.89 152.55 711.75 162.4 712.69 197.5 672.65 161.34 683.56 133.47"/></g><g id="head-5" data-name="head"><path id="face-4" data-name="face" class="cls-2" d="M679.4,109s-5-30.58,26-36.09c2.88-.51,22.65-3.62,26.38,12.77a135.34,135.34,0,0,1,2.8,32.1s-.17,17.47-7,27.19-22.07,8.93-30.16,4.22S687.8,142,685.5,136.36,679.42,109,679.42,109Z"/><polyline id="nose-4" data-name="nose" class="cls-2" points="721.75 111.07 724.91 126.07 719.43 125.2"/><ellipse id="eye_II-4" data-name="eye II" class="cls-1" cx="728.72" cy="109.87" rx="1.56" ry="2.41" transform="translate(-7.06 68.24) rotate(-5.34)"/><ellipse id="eye-4" data-name="eye" class="cls-1" cx="713.91" cy="111.54" rx="2.41" ry="1.56" transform="translate(535.2 811.66) rotate(-84.56)"/><path id="brow_II-3" data-name="brow II" class="cls-2" d="M705.07,100.77a7.14,7.14,0,0,1,6.66-2.91"/><path id="brow-3" data-name="brow" class="cls-2" d="M725.35,96.59s5.36-2.46,7.74.77"/><path id="hair_front" data-name="hair front" class="cls-1" d="M703.54,86s12,41-15.26,45.36c0,0-15.88,2.93-19.55-2.66,0,0,11.48-6.2,10-12.77,0,0-12.85,14.3-24.2,4.18,0,0,18.79-3.27,17-20.19C670.23,87.77,699.28,76.17,703.54,86Z"/><path class="cls-1" d="M739.12,108.51c2.49-17.14-1.42-27.49-7.93-24.74.2.61.39,1.23.54,1.89a135.34,135.34,0,0,1,2.8,32.1s0,2-.3,4.94c2,1.37,4.74,2,8.42,1.06C742.65,123.76,737.9,116.84,739.12,108.51Z"/><path id="cap" class="cls-1" d="M653.7,92.12l16.6-2.63c1.64-11.21,8-27.28,31-30.11,35.82-4.43,37.14,30.45,37.14,30.45l-83,13a5.42,5.42,0,1,1-1.7-10.7Z"/><path id="mouth-4" data-name="mouth" class="cls-2" d="M708.45,128.88s2.3,5.3,9.78,4.06"/></g><path id="laptop-3" data-name="laptop" class="cls-1" d="M701.61,212.28a3.55,3.55,0,0,0-3.46,2.74l-17,72H649.55s-1.62,8.39,4.72,12.52a131.88,131.88,0,0,0,13.87,2.26l28.05,0A130.81,130.81,0,0,0,806.6,212.28Z"/></g><g id="circle-2" data-name="circle"><path class="cls-2" d="M798.79,112.7a130.69,130.69,0,1,1-41.8-48"/><path class="cls-2" d="M777.22,82.14A134.25,134.25,0,0,1,786.43,93"/></g><g id="picture"><rect class="cls-2" x="758.04" y="28.6" width="52.1" height="52.1" transform="translate(1.68 -20.32) rotate(1.49)"/><line class="cls-6" x1="757.38" y1="79.56" x2="810.81" y2="29.28"/><line class="cls-6" x1="758.72" y1="27.93" x2="809.46" y2="81.37"/></g><g id="button"><g id="button-2" data-name="button"><rect class="cls-2" x="766.73" y="93.62" width="54.85" height="17.87" rx="7.8"/><circle class="cls-1" cx="811.75" cy="102.19" r="13.83"/></g></g></g><g id="line-2" data-name="line"><line class="cls-2" x1="182.07" y1="168.66" x2="2.5" y2="168.66"/><line class="cls-2" x1="1715.47" y1="168.66" x2="1535.9" y2="168.66"/><line class="cls-2" x1="550.52" y1="168.66" x2="444.98" y2="168.66"/><line class="cls-2" x1="920.07" y1="168.66" x2="813.69" y2="168.66"/><line class="cls-2" x1="1270.45" y1="168.66" x2="1182.42" y2="168.66"/></g></g></g></svg>