<svg xmlns="http://www.w3.org/2000/svg" viewBox="0 0 1662.57 596.76"><defs><style>.cls-1,.cls-3,.cls-6{fill:none;}.cls-1,.cls-6{stroke:#111;}.cls-1,.cls-3,.cls-4,.cls-6{stroke-linecap:round;stroke-linejoin:round;stroke-width:6px;}.cls-2{fill:#111;}.cls-3,.cls-4{stroke:#6d6d6d;}.cls-4{fill:#fff;}.cls-5{fill:#6d6d6d;}.cls-6{stroke-dasharray:11.88 11.88;}</style></defs><g id="Layer_2" data-name="Layer 2"><g id="outline"><g id="whiteboard"><polyline class="cls-1" points="1293.86 366.05 1293.86 133.13 1260.38 133.13"/><polyline id="shape" class="cls-1" points="464.87 402.25 464.87 133.13 1273.26 133.13 1273.26 366.05"/><g id="post-its"><rect class="cls-1" x="630.38" y="310.76" width="33.84" height="33.84"/><rect class="cls-1" x="630.38" y="344.6" width="33.84" height="33.84"/><rect class="cls-1" x="1156.19" y="246.84" width="33.84" height="33.84"/><rect class="cls-1" x="1156.19" y="280.68" width="33.84" height="33.84"/><rect class="cls-1" x="520.65" y="302.31" width="33.84" height="33.84"/><rect class="cls-1" x="520.65" y="336.15" width="33.84" height="33.84"/><polyline class="cls-1" points="520.65 401.61 520.65 370 554.49 370 554.49 400.96"/><rect class="cls-1" x="764.84" y="304.53" width="33.84" height="33.84"/><rect class="cls-1" x="764.84" y="338.37" width="33.84" height="33.84"/><rect class="cls-1" x="764.84" y="372.22" width="33.84" height="33.84"/><rect class="cls-1" x="1106" y="227.66" width="33.84" height="33.84"/><rect class="cls-1" x="1106" y="261.51" width="33.84" height="33.84"/><rect class="cls-1" x="1106" y="295.35" width="33.84" height="33.84"/><rect class="cls-1" x="987.03" y="346.19" width="33.84" height="33.84"/><rect class="cls-1" x="987.03" y="380.04" width="33.84" height="33.84"/><rect class="cls-1" x="987.03" y="413.88" width="33.84" height="33.84"/><rect class="cls-1" x="987.03" y="447.73" width="33.84" height="33.84"/><rect class="cls-1" x="1051.44" y="295.42" width="33.84" height="33.84"/><rect class="cls-1" x="1051.44" y="329.27" width="33.84" height="33.84"/><rect class="cls-1" x="1051.44" y="363.11" width="33.84" height="33.84"/><rect class="cls-1" x="1051.44" y="396.96" width="33.84" height="33.84"/><rect class="cls-1" x="722.33" y="277.99" width="33.84" height="33.84"/><rect class="cls-1" x="810.38" y="277.99" width="33.84" height="33.84"/><rect class="cls-1" x="810.38" y="311.83" width="33.84" height="33.84"/><rect class="cls-1" x="810.38" y="345.68" width="33.84" height="33.84"/><rect class="cls-1" x="810.38" y="379.52" width="33.84" height="33.84"/><rect class="cls-1" x="810.38" y="413.36" width="33.84" height="33.84"/><rect class="cls-1" x="810.38" y="447.21" width="33.84" height="33.84"/><rect class="cls-1" x="938.88" y="338.75" width="33.84" height="33.84"/><rect class="cls-1" x="938.88" y="541.82" width="33.84" height="33.84"/><rect class="cls-1" x="938.88" y="372.6" width="33.84" height="33.84"/><rect class="cls-1" x="938.88" y="406.44" width="33.84" height="33.84"/><rect class="cls-1" x="938.88" y="440.29" width="33.84" height="33.84"/><rect class="cls-1" x="938.88" y="474.13" width="33.84" height="33.84"/><rect class="cls-1" x="938.88" y="507.98" width="33.84" height="33.84"/><rect class="cls-1" x="575.52" y="288.43" width="33.84" height="33.84"/><rect class="cls-1" x="575.52" y="322.28" width="33.84" height="33.84"/><rect class="cls-1" x="575.52" y="356.12" width="33.84" height="33.84"/><polyline class="cls-1" points="575.51 402.25 575.51 389.66 609.36 389.66 609.36 401.61"/><rect class="cls-1" x="667.81" y="469.56" width="33.84" height="33.84"/><rect class="cls-1" x="710.75" y="469.56" width="33.84" height="33.84"/><rect class="cls-1" x="1039.03" y="493.81" width="33.84" height="33.84"/><rect class="cls-1" x="1079.8" y="493.81" width="33.84" height="33.84"/><rect class="cls-1" x="1039.03" y="535.01" width="33.84" height="33.84"/><rect class="cls-1" x="721.16" y="511.31" width="33.84" height="33.84"/><rect class="cls-1" x="679.08" y="511.31" width="33.84" height="33.84"/><polyline class="cls-1" points="644.69 511.31 666.78 511.31 666.78 545.16 637.25 545.16"/></g><g id="lines"><polyline class="cls-1" points="532.57 288.43 532.57 253.76 654.45 253.76 654.45 297.99"/><line class="cls-1" x1="593.51" y1="277.61" x2="593.51" y2="194.77"/><polyline class="cls-1" points="739.26 265.85 739.26 240.7 830.87 240.7 830.87 265.85"/><line class="cls-1" x1="785.07" y1="288.84" x2="785.07" y2="192.99"/><line class="cls-1" x1="532.57" y1="176.12" x2="654.45" y2="176.12"/><line class="cls-1" x1="742.83" y1="181.93" x2="830.87" y2="181.93"/><line class="cls-1" x1="1051.44" y1="166.12" x2="1139.49" y2="166.12"/><line class="cls-1" x1="670.85" y1="450.68" x2="761.5" y2="450.68"/><line class="cls-1" x1="1055.95" y1="474.74" x2="1096.72" y2="474.74"/><polyline class="cls-1" points="950.61 325.3 950.61 297.61 1000.92 297.61 1000.92 334.84"/><polyline class="cls-1" points="975.77 227.13 975.77 197.13 1173.11 197.13 1173.11 235.52"/><line class="cls-1" x1="975.77" y1="297.61" x2="975.77" y2="269.49"/><line class="cls-1" x1="1068.11" y1="280.68" x2="1068.11" y2="197.13"/><line class="cls-1" x1="1120.72" y1="213.4" x2="1120.72" y2="197.13"/><line class="cls-1" x1="1092.01" y1="193.88" x2="1092.01" y2="177.61"/><line class="cls-1" x1="942.22" y1="241.59" x2="1014.22" y2="241.59"/><line class="cls-1" x1="958.42" y1="254.64" x2="998.03" y2="254.64"/></g></g><g id="graphs"><g id="circle_graph" data-name="circle graph"><rect class="cls-1" x="226.08" y="200.33" width="152.31" height="163.95"/><path class="cls-2" d="M308.08,234.27a47.61,47.61,0,0,0-7.88.74l8.39,47.6-16.11,45.58a48.34,48.34,0,1,0,15.6-93.92Z"/><path class="cls-1" d="M250.15,284.36a48.44,48.44,0,0,0,32.09,45l16.25-45.53Z"/><path class="cls-3" d="M287.49,226.25a48.34,48.34,0,0,0-39.94,48.12l48.34-.51Z"/><polyline class="cls-1" points="378.39 240.11 423.95 240.11 423.95 354.6 518.52 354.6"/><circle class="cls-2" cx="518.52" cy="354.6" r="8.48"/></g><g id="graph"><polyline class="cls-1" points="1485.72 366.05 1516.69 366.05 1516.69 591.86"/><polyline class="cls-1" points="1149.81 591.86 1149.81 366.05 1493.98 366.05 1493.98 591.86"/><polyline class="cls-1" points="1187.13 399.4 1187.13 557.68 1456.53 557.68"/><g id="lines-2" data-name="lines"><line class="cls-1" x1="1215.97" y1="567.04" x2="1238.16" y2="567.04"/><line class="cls-1" x1="1280.94" y1="567.04" x2="1303.12" y2="567.04"/><line class="cls-4" x1="1344.61" y1="567.04" x2="1366.79" y2="567.04"/><line class="cls-1" x1="1408.43" y1="567.04" x2="1430.61" y2="567.04"/><path class="cls-2" d="M1176,436.61a2.48,2.48,0,0,1-2.48-2.49v-3.85a2.48,2.48,0,0,1,5,0v3.85A2.48,2.48,0,0,1,1176,436.61Z"/><path class="cls-2" d="M1176,467.68a2.48,2.48,0,0,1-2.48-2.48v-3.85a2.48,2.48,0,1,1,5,0v3.85A2.48,2.48,0,0,1,1176,467.68Z"/><path class="cls-2" d="M1176,501.8a2.48,2.48,0,0,1-2.48-2.49v-3.85a2.48,2.48,0,0,1,5,0v3.85A2.48,2.48,0,0,1,1176,501.8Z"/><path class="cls-2" d="M1176,534a2.48,2.48,0,0,1-2.48-2.48v-3.85a2.48,2.48,0,1,1,5,0v3.85A2.48,2.48,0,0,1,1176,534Z"/></g><polyline class="cls-1" points="1217.48 364.05 1217.48 264.4 1191.07 264.4"/><circle class="cls-2" cx="1191.07" cy="264.4" r="8.48"/><line class="cls-1" x1="1209.79" y1="527.66" x2="1187.14" y2="527.66"/><line class="cls-1" x1="1272.24" y1="527.66" x2="1248.1" y2="527.66"/><line class="cls-1" x1="1399.93" y1="527.66" x2="1311.05" y2="527.66"/><line class="cls-1" x1="1459.01" y1="527.66" x2="1438.53" y2="527.66"/><line class="cls-1" x1="1272.24" y1="495.46" x2="1187.14" y2="495.46"/><line class="cls-1" x1="1400.25" y1="495.46" x2="1311.05" y2="495.46"/><line class="cls-1" x1="1459.01" y1="495.46" x2="1438.21" y2="495.46"/><line class="cls-1" x1="1459.01" y1="463.08" x2="1187.14" y2="463.08"/><line class="cls-1" x1="1459.01" y1="431.08" x2="1187.14" y2="431.08"/><polygon class="cls-5" points="1374.23 554.93 1337.13 554.93 1335.66 410.74 1373.4 410.35 1374.23 554.93"/><rect class="cls-1" x="1400.4" y="463.27" width="37.95" height="94.22" transform="translate(-5.14 14.54) rotate(-0.59)"/><rect class="cls-1" x="1272.91" y="463.27" width="37.95" height="94.22" transform="translate(-5.15 13.24) rotate(-0.59)"/><polygon class="cls-1" points="1248.1 557.3 1210.35 557.68 1209.79 512.52 1247.53 512.14 1248.1 557.3"/></g></g><g id="laptop"><path id="shape-2" data-name="shape" class="cls-1" d="M624.52,593.09l44.11-181.57a7.54,7.54,0,0,0-7.34-9.27l-29,.25"/><path id="shape-3" data-name="shape" class="cls-1" d="M605.44,592a7.42,7.42,0,0,0,1.5-3L649.5,411.52a7.54,7.54,0,0,0-7.33-9.27L379.29,404.5a7.54,7.54,0,0,0-7.34,5.81L325.6,567.09h-92S230.28,584,243.84,591.4"/><path id="screen" class="cls-1" d="M347,552.07l33.75-122.66a9.35,9.35,0,0,1,9.09-7.19l227-2.25a9.35,9.35,0,0,1,9.11,11.52L596.76,556.63a9.34,9.34,0,0,1-9.11,7.19l-231.57-.24A9.35,9.35,0,0,1,347,552.07Z"/><g id="screen_lines" data-name="screen lines"><polyline class="cls-1" points="591.94 441.15 597.97 450.56 588.26 457.07"/><line class="cls-1" x1="578.96" y1="455.72" x2="570.99" y2="442.73"/><polyline class="cls-1" points="562.06 442.01 552.91 449.13 558.57 457.08"/><line class="cls-1" x1="549.13" y1="542.55" x2="527.91" y2="542.56"/><line class="cls-1" x1="513.2" y1="542.56" x2="469.93" y2="542.59"/><line class="cls-1" x1="455.61" y1="542.59" x2="373.23" y2="542.64"/><line class="cls-1" x1="579.64" y1="529.9" x2="566.65" y2="529.9"/><line class="cls-1" x1="552.05" y1="529.91" x2="530.83" y2="529.92"/><line class="cls-1" x1="516.23" y1="529.93" x2="371.67" y2="530.01"/><line class="cls-1" x1="582.55" y1="517.26" x2="553.2" y2="517.28"/><line class="cls-1" x1="539.24" y1="517.28" x2="500.18" y2="517.3"/><line class="cls-1" x1="460.58" y1="517.32" x2="412.08" y2="517.35"/><line class="cls-1" x1="486.25" y1="517.31" x2="472.5" y2="517.32"/><line class="cls-1" x1="585.47" y1="504.63" x2="545.05" y2="504.65"/><line class="cls-1" x1="532.74" y1="504.65" x2="429.94" y2="504.71"/><line class="cls-1" x1="417.62" y1="504.71" x2="377.51" y2="504.73"/><line class="cls-1" x1="564.43" y1="492" x2="548.89" y2="492.01"/><line class="cls-1" x1="538.83" y1="492.02" x2="443.16" y2="492.07"/><line class="cls-1" x1="588.39" y1="491.99" x2="574.49" y2="492"/><line class="cls-1" x1="590.69" y1="482.06" x2="517.1" y2="482.1"/><line class="cls-1" x1="505.82" y1="482.11" x2="380.89" y2="482.17"/><line class="cls-1" x1="593.44" y1="470.15" x2="553.02" y2="470.17"/><line class="cls-1" x1="539.38" y1="470.18" x2="509.39" y2="470.19"/><line class="cls-1" x1="496.67" y1="470.2" x2="479.56" y2="470.21"/><line class="cls-1" x1="466.84" y1="470.22" x2="429.99" y2="470.24"/><line class="cls-1" x1="417.27" y1="470.24" x2="407.36" y2="470.25"/></g></g><g id="paper_plane" data-name="paper plane"><path class="cls-1" d="M962.64,35.93l6,.16"/><path class="cls-6" d="M980.52,36.37c122,2.5,170.28-4.84,214.38,108.06C1240,260,1362.11,270.15,1420.09,216.85a68.74,68.74,0,1,0-110.3-72.44s-52.06,164,164,185.45"/><path class="cls-1" d="M1479.74,330.4c2,.17,4,.33,6,.47"/><polygon class="cls-1" points="929.32 79.16 862.75 15.71 977.28 3 960.98 27.38 967.22 53.99 949.32 46.85 929.32 79.16"/><line class="cls-1" x1="871.62" y1="18.84" x2="957.49" y2="25.12"/><line class="cls-1" x1="945.5" y1="46.57" x2="871.62" y2="18.84"/></g><line id="line" class="cls-1" x1="3" y1="593.76" x2="1659.57" y2="593.76"/></g></g></svg>