<svg xmlns="http://www.w3.org/2000/svg" viewBox="0 0 1714.87 615.72"><defs><style>.cls-1,.cls-2,.cls-3{fill:none;stroke-linejoin:round;stroke-width:6px;}.cls-1,.cls-2{stroke:#111;}.cls-1,.cls-3{stroke-linecap:round;}.cls-3{stroke:#6d6d6d;}.cls-4{fill:#111;}.cls-5{fill:#6d6d6d;}</style></defs><g id="Layer_2" data-name="Layer 2"><g id="outline_II" data-name="outline II"><g id="workspace"><g id="lamp"><path class="cls-1" d="M1334.73,201.29l250.1,197.07a9,9,0,0,1-11.14,14.13l-237-186.83"/><line class="cls-1" x1="1554.41" y1="398.32" x2="1554.41" y2="586.35"/><path class="cls-1" d="M1536.41,360.18V334.66a9,9,0,0,1,18,0V373"/><line class="cls-1" x1="1536.41" y1="586.13" x2="1536.41" y2="384.44"/><polyline class="cls-1" points="1440.36 586.79 1567.33 586.79 1567.33 611.08"/><rect class="cls-1" x="1098.89" y="197.75" width="240.79" height="31.8" rx="14.41"/></g><g id="pile_of_files" data-name="pile of files"><polyline class="cls-1" points="1114.02 378.79 1440.36 378.79 1440.36 487.29"/><line class="cls-1" x1="1440.36" y1="514.13" x2="1440.36" y2="610.44"/><path class="cls-2" d="M1290.09,376.58V611.76"/><line class="cls-1" x1="1244" y1="404.45" x2="1398.92" y2="404.45"/><line class="cls-1" x1="1337.73" y1="487.67" x2="1437.26" y2="487.67"/><line class="cls-1" x1="1228.51" y1="555.22" x2="1422.54" y2="555.22"/><line class="cls-1" x1="1255.62" y1="466.86" x2="1155.31" y2="466.86"/><line class="cls-1" x1="1148.72" y1="523.42" x2="1216.89" y2="523.42"/><path class="cls-1" d="M1441.36,487.29c25.56,9.66-.77,25.82-.77,25.82s-6.59-18.32-40.28-25.75Z"/></g><g id="computer_screen" data-name="computer screen"><polyline id="shape" class="cls-1" points="327.11 451.82 521.36 451.82 485.64 588.21"/><path id="shape-2" data-name="shape" class="cls-1" d="M964.62,337.6V17.83A14.87,14.87,0,0,0,949.79,3H244.31a14.87,14.87,0,0,0-14.83,14.83V354.08"/><polyline id="shape-3" data-name="shape" class="cls-1" points="736.99 611.35 696.11 451.82 733.2 451.82"/><circle id="shape-4" data-name="shape" class="cls-1" cx="604.53" cy="520.46" r="30.84"/><line class="cls-1" x1="672.7" y1="452.35" x2="710.04" y2="611.35"/><path id="screen" class="cls-1" d="M264.66,278.37V45.17a14,14,0,0,1,14-14h609a14,14,0,0,1,14,14v294.6"/><line id="screen-2" data-name="screen" class="cls-1" x1="728" y1="413.76" x2="368.07" y2="413.76"/><line class="cls-1" x1="933.79" y1="6.54" x2="933.79" y2="337.6"/><line class="cls-1" x1="696.11" y1="451.82" x2="521.36" y2="451.82"/><g id="lines_on_screen" data-name="lines on screen"><line class="cls-1" x1="641.58" y1="92.38" x2="641.58" y2="374.45"/><path class="cls-1" d="M880.14,132.67c-2.42.81-238.56-3.22-238.56,0"/><path class="cls-1" d="M880.14,233.79c-2.42.81-238.56-3.22-238.56,0"/><path class="cls-1" d="M880.14,319.16c-2.42.81-238.56-3.22-238.56,0"/><line class="cls-1" x1="662.74" y1="157.46" x2="761.87" y2="157.46"/><line class="cls-1" x1="662.74" y1="178.21" x2="820.5" y2="178.21"/><line class="cls-1" x1="662.74" y1="194.73" x2="764.49" y2="194.73"/><line class="cls-1" x1="662.74" y1="211.25" x2="698.8" y2="211.25"/><line class="cls-1" x1="662.74" y1="255.18" x2="820.5" y2="255.18"/><line class="cls-1" x1="662.74" y1="271.7" x2="764.49" y2="271.7"/><line class="cls-1" x1="662.74" y1="288.22" x2="698.8" y2="288.22"/><line class="cls-1" x1="662.74" y1="335.63" x2="820.5" y2="335.63"/><line class="cls-1" x1="662.74" y1="352.15" x2="764.49" y2="352.15"/><line class="cls-1" x1="309.74" y1="132.78" x2="541.24" y2="132.78"/><line class="cls-1" x1="309.74" y1="151.41" x2="541.24" y2="151.41"/><line class="cls-1" x1="369.72" y1="349.47" x2="541.24" y2="349.47"/><line class="cls-1" x1="309.74" y1="349.47" x2="328.65" y2="349.47"/><line class="cls-1" x1="338.15" y1="178.21" x2="497.72" y2="178.21"/><line class="cls-1" x1="338.15" y1="197.35" x2="474.45" y2="197.35"/><line class="cls-1" x1="368.07" y1="222.74" x2="544.57" y2="224.25"/><line class="cls-1" x1="368.07" y1="240.71" x2="544.57" y2="242.22"/><line class="cls-1" x1="368.07" y1="296.77" x2="544.57" y2="298.28"/><line class="cls-1" x1="368.07" y1="312.38" x2="544.57" y2="313.89"/><line class="cls-1" x1="335.43" y1="261.94" x2="438.18" y2="261.94"/><line class="cls-1" x1="335.43" y1="279.35" x2="438.18" y2="279.35"/><line class="cls-1" x1="335.43" y1="334.96" x2="394.56" y2="334.96"/><polyline class="cls-1" points="283.75 281.21 283.75 92.38 880.14 92.38 880.14 339.77"/><line class="cls-1" x1="308.43" y1="374.45" x2="299" y2="374.45"/><line class="cls-1" x1="718.45" y1="374.45" x2="368.07" y2="374.45"/><line class="cls-3" x1="304.9" y1="72.83" x2="335.43" y2="72.83"/><line class="cls-3" x1="438.18" y1="72.83" x2="462.87" y2="72.83"/><line class="cls-3" x1="490.87" y1="72.83" x2="510.21" y2="72.83"/><line class="cls-1" x1="842.52" y1="72.83" x2="861.86" y2="72.83"/><line class="cls-1" x1="809.44" y1="72.83" x2="828.78" y2="72.83"/><line class="cls-3" x1="364.08" y1="72.83" x2="408.26" y2="72.83"/><rect class="cls-1" x="283.75" y="54.58" width="596.39" height="37.8"/></g></g><g id="flower"><g id="leaves"><path class="cls-1" d="M206.49,401.81q-4.56-5.54-9.11-11.84c-29.35-40.68-8-70,21-47.35s57,109.05,57,109.05"/><path class="cls-1" d="M276.3,450c-10.89-25.17-31.12-71.63-34.26-115.8-4.3-60.74,40.59-74.92,54-32.28C316.1,365.9,276.3,450,276.3,450Z"/><path class="cls-1" d="M348.22,401.11c2.59-3,5.09-6.16,7.46-9.45,29.35-40.69,8-70-21-47.36s-42.36,63.37-57,107.37"/><path class="cls-1" d="M277.64,465c-1-1.33,3.67-22-35.36-46.69s-48-16.71-53-7.69,17.67,30.37,42,42.71S277.64,465,277.64,465Z"/><path class="cls-1" d="M277.64,465c1-1.33-3.67-22,35.35-46.69s48-16.71,53-7.69S348.34,441,324,453.31,277.64,465,277.64,465Z"/></g><polygon id="pot" class="cls-1" points="241.52 612.21 196.16 560.75 236.28 467.73 320.39 467.73 359.11 562.35 315.16 612.21 241.52 612.21"/></g><rect id="keypad" class="cls-4" x="260.42" y="583.2" width="353.45" height="27.4" rx="10.53"/><rect id="keypad-2" data-name="keypad" class="cls-4" x="83.69" y="583.2" width="91.02" height="27.4" rx="10.53"/><g id="laptop"><path class="cls-4" d="M1308,572.55H1167.7l-53.82-227.82a11,11,0,0,0-10.66-8.44l-388.83-3.22a11,11,0,0,0-10.66,13.47l61.83,257.74a11,11,0,0,0,10.66,8.44h494.23C1315.8,612.72,1308,572.55,1308,572.55Zm-178-5.1-336.44.35a13.58,13.58,0,0,1-13.23-10.45L738,375.54a13.59,13.59,0,0,1,13.24-16.73l336.62,4a13.58,13.58,0,0,1,13.2,10.45l42.17,177.5A13.59,13.59,0,0,1,1130,567.45Z"/><g id="screen_lines" data-name="screen lines"><polyline class="cls-1" points="787.35 389.58 778.6 403.26 792.7 412.71"/><line class="cls-1" x1="806.22" y1="410.75" x2="817.8" y2="391.87"/><polyline class="cls-1" points="830.77 390.83 844.05 401.17 835.83 412.73"/><line class="cls-1" x1="849.56" y1="536.89" x2="880.38" y2="536.91"/><line class="cls-1" x1="901.76" y1="536.92" x2="964.62" y2="536.95"/><line class="cls-1" x1="985.42" y1="536.96" x2="1105.11" y2="537.03"/><line class="cls-1" x1="805.23" y1="518.51" x2="824.1" y2="518.52"/><line class="cls-1" x1="845.31" y1="518.53" x2="876.14" y2="518.55"/><line class="cls-1" x1="897.35" y1="518.56" x2="1107.37" y2="518.67"/><line class="cls-1" x1="800.99" y1="500.16" x2="843.64" y2="500.18"/><line class="cls-1" x1="863.93" y1="500.19" x2="920.66" y2="500.22"/><line class="cls-1" x1="978.19" y1="500.25" x2="1048.66" y2="500.29"/><line class="cls-1" x1="940.9" y1="500.23" x2="960.88" y2="500.24"/><line class="cls-1" x1="796.75" y1="481.8" x2="855.48" y2="481.83"/><line class="cls-1" x1="873.37" y1="481.84" x2="1022.71" y2="481.92"/><line class="cls-1" x1="1040.61" y1="481.93" x2="1098.89" y2="481.96"/><line class="cls-1" x1="827.32" y1="463.46" x2="849.91" y2="463.47"/><line class="cls-1" x1="864.52" y1="463.48" x2="1003.5" y2="463.55"/><line class="cls-1" x1="792.51" y1="463.44" x2="812.7" y2="463.45"/><line class="cls-1" x1="789.17" y1="449.02" x2="896.09" y2="449.08"/><line class="cls-1" x1="912.48" y1="449.08" x2="1093.97" y2="449.18"/><line class="cls-1" x1="785.18" y1="431.71" x2="843.9" y2="431.74"/><line class="cls-1" x1="863.71" y1="431.75" x2="907.29" y2="431.78"/><line class="cls-1" x1="925.77" y1="431.79" x2="950.62" y2="431.8"/><line class="cls-1" x1="969.1" y1="431.81" x2="1022.64" y2="431.84"/><line class="cls-3" x1="1041.12" y1="431.85" x2="1055.52" y2="431.85"/></g><g id="post_it" data-name="post it"><path class="cls-5" d="M984.23,350.2s17.5,78,33.44,90.28H1143.6A37.73,37.73,0,0,1,1118,414.34l-18-64Z"/><path class="cls-1" d="M1010.91,378h76"/><path class="cls-1" d="M1014.31,392.25h76"/><line class="cls-1" x1="1018.23" y1="406.91" x2="1068.67" y2="406.91"/></g></g><line id="line" class="cls-1" x1="3" y1="612.72" x2="1711.87" y2="612.72"/></g></g></g></svg>