<svg xmlns="http://www.w3.org/2000/svg" viewBox="0 0 1769.67 515.11"><defs><style>.cls-1,.cls-3,.cls-6,.cls-7,.cls-8{fill:none;stroke-linecap:round;stroke-linejoin:round;}.cls-1,.cls-8{stroke:#111;}.cls-1,.cls-3{stroke-width:6px;}.cls-2{fill:#2f2f2f;}.cls-3,.cls-6,.cls-7{stroke:#6d6d6d;}.cls-4{fill:#111;}.cls-5{fill:#6d6d6d;}.cls-6{stroke-width:8px;}.cls-7{stroke-width:4.5px;}.cls-8{stroke-width:5.83px;}</style></defs><g id="Layer_2" data-name="Layer 2"><g id="outline_II" data-name="outline II"><g id="block_diagram" data-name="block diagram"><line id="shape" class="cls-1" x1="626.17" y1="276.76" x2="312.25" y2="276.76"/><line id="shape-2" data-name="shape" class="cls-1" x1="1019.31" y1="276.76" x2="705.87" y2="276.76"/><line id="shape-3" data-name="shape" class="cls-1" x1="1440.4" y1="276.76" x2="1123.7" y2="276.76"/><polyline id="shape-4" data-name="shape" class="cls-1" points="235.75 230.59 235.75 3 1519.42 3 1519.42 236.88"/><g id="shapes"><ellipse class="cls-1" cx="357.8" cy="88.48" rx="52.15" ry="24.47"/><ellipse class="cls-1" cx="1284.99" cy="88.48" rx="52.15" ry="24.47"/><rect class="cls-1" x="516.84" y="65.62" width="135.7" height="44.43"/><rect class="cls-1" x="985.23" y="184.41" width="135.7" height="44.43"/><polygon class="cls-1" points="906.55 111.38 771.82 111.38 790.17 65.74 924.9 65.74 906.55 111.38"/><polygon class="cls-1" points="889.39 227.93 754.66 227.93 773.01 182.29 907.75 182.29 889.39 227.93"/><polygon class="cls-1" points="1060.59 55.67 999.76 83.5 1060.59 111.33 1121.42 83.5 1060.59 55.67"/><polygon class="cls-2" points="441.56 90.42 481.69 90.42 481.69 95.26 489.7 87.25 481.69 79.24 481.69 84.08 441.56 84.08 441.56 90.42"/><polygon class="cls-2" points="690.29 90.42 730.42 90.42 730.42 95.26 738.43 87.25 730.42 79.24 730.42 84.08 690.29 84.08 690.29 90.42"/><polygon class="cls-2" points="935.01 90.42 975.14 90.42 975.14 95.26 983.15 87.25 975.14 79.24 975.14 84.08 935.01 84.08 935.01 90.42"/><polygon class="cls-2" points="969.28 202.3 929.15 202.3 929.15 197.46 921.14 205.47 929.15 213.49 929.15 208.65 969.28 208.65 969.28 202.3"/><path class="cls-2" d="M736.63,202.83h-45V124.15h4.84l-8-8-8,8h4.84v85h51.32Z"/><polygon class="cls-2" points="1152.45 90.42 1192.58 90.42 1192.58 95.26 1200.6 87.25 1192.58 79.24 1192.58 84.08 1152.45 84.08 1152.45 90.42"/><polygon class="cls-2" points="1055.4 124.96 1055.4 165.09 1050.57 165.09 1058.58 173.1 1066.59 165.09 1061.75 165.09 1061.75 124.96 1055.4 124.96"/><line class="cls-1" x1="1485.2" y1="197.19" x2="1484.92" y2="3.8"/></g></g><g id="thinking_woman" data-name="thinking woman"><path id="chair" class="cls-1" d="M1238.58,510.06V455.3a139.09,139.09,0,0,0-139.09-139.09"/><g id="head"><g id="head-2" data-name="head"><g id="earring_back" data-name="earring back"><path class="cls-3" d="M1106.91,333c6.19.89,12.55-6.32,14.28-16.25a24.58,24.58,0,0,0-1.42-14.21"/><path class="cls-3" d="M1032.87,319.92a28.31,28.31,0,0,0,2.54-7.81"/></g><path id="neck" class="cls-1" d="M1039.45,356.05c.71,12.43,6.48,28.46,30.06,29.32,24.76.9,39.8-20.12,49.71-38.8l-20.76-2.12,7.82-44.25"/><path id="ear_II" data-name="ear II" class="cls-1" d="M1106.33,300.7a12.41,12.41,0,0,0,11.47.54c6.14-2.79,9-9.79,6.32-15.64a11.73,11.73,0,0,0-12.62-6.52"/><path id="ear" class="cls-1" d="M1031.74,273.61a12.64,12.64,0,0,0-7.38,1c-6.14,2.79-9,9.79-6.32,15.63a11.76,11.76,0,0,0,13,6.46"/><path id="face" class="cls-1" d="M1064.1,334.51a32.48,32.48,0,0,0,15.58-2.56"/><path id="face-2" data-name="face" class="cls-1" d="M1079.68,332c14.8-6.25,26.8-22.83,29.5-43.14,3.61-27.13-10.72-50.64-32-52.52s-41.48,18.58-45.09,45.7c-1.93,14.5,1.27,28,7.92,37.66"/><g id="ponytail"><path class="cls-4" d="M1116.31,231.24c-12.41-10.77-17.1-62.45,21.36-93.82,38.93-31.75,66.25,6,72.2,15.87s9,35.88-24.24,57.61S1130.48,243.55,1116.31,231.24Z"/><path class="cls-5" d="M1095.39,252.3l.77.6a11.3,11.3,0,0,0,15.34-1.82l10.69-12.7a10.08,10.08,0,0,0-1.46-14.66l-.78-.6a11.3,11.3,0,0,0-15.33,1.82l-10.7,12.7A10.08,10.08,0,0,0,1095.39,252.3Z"/></g><path id="nose" class="cls-1" d="M1063.56,298.53l-7.35-.39a1.17,1.17,0,0,1-1.07-1.5l5.67-19.94"/><path id="brow_II" data-name="brow II" class="cls-1" d="M1084.43,265.7s-6.4-5.95-11.93-1.19"/><path id="brow" class="cls-1" d="M1054.76,263.31s-8.27-3.28-11.75,3"/><ellipse id="eye_II" data-name="eye II" class="cls-4" cx="1075.03" cy="281.93" rx="2.94" ry="4.39" transform="translate(-3.8 14.9) rotate(-0.79)"/><ellipse id="eye" class="cls-4" cx="1047.58" cy="282.45" rx="4.41" ry="2.93" transform="translate(671.09 1300.03) rotate(-84.79)"/><path id="mouth" class="cls-1" d="M1062.12,313.78s13.6,11.6,17.86-11.86Z"/><path id="hair" class="cls-4" d="M1119.87,242.09c-7.65-8.53-21.57-14.56-34.09-16.62l-.08-.12c-80.64-15.1-68.4,33.66-68.4,33.66l14.37-.64c-3.51,9.34-3.5,18.2.37,24,0-.11,0-.22,0-.34a62.08,62.08,0,0,1,8.38-24L1083,256.1c-1.27-6.11,4.18-11.57,8.31-14.74-.08,2.4-.65,31.18,18.41,38.72a63.44,63.44,0,0,1-.54,8.73c-.11.81-.23,1.61-.37,2.41a33.86,33.86,0,0,0,3.53-.27C1126.47,289,1133.42,257.22,1119.87,242.09Z"/><g id="earring_front" data-name="earring front"><path class="cls-3" d="M1027.23,292c-6.25-1.08-12.74,6.18-14.49,16.23-1.26,7.27.31,14,3.65,17.58"/><path class="cls-3" d="M1113,296.58c-6.26-1.09-12.75,6.18-14.49,16.22s1.92,19.07,8.18,20.16l.21,0"/></g></g></g><g id="hand"><path id="hand-2" data-name="hand" class="cls-1" d="M1042.26,349.38c-6.34,1.07-13.27,4.06-17,2.31,0,0-2.15,4.68-6.52,12.08"/><path id="hand-3" data-name="hand" class="cls-1" d="M996.42,348.71a78.53,78.53,0,0,0,8.72-9.27c3.4-4.05,6.22-7.22,8.57-9.71a29.35,29.35,0,0,1,21.48-9.26c6.24,0,13.49.27,17,1.24,6.79,1.89,29,7.71,28,11.24-.72,2.5-12.68,1.89-18.83,1.35"/><path id="finger_III" data-name="finger III" class="cls-1" d="M1049.91,326.73s15,7.41,14.36,13.07-5.18,4.43-5.18,4.43"/><path id="finger_II" data-name="finger II" class="cls-1" d="M1047.14,332.82s12.8,7.73,11.74,13.33-5.5,4-5.5,4"/><path id="finger" class="cls-1" d="M1043.54,340.26s15.24,9.55,6.87,13.21-11.34,1.91-11.34,1.91-3.54-4.45,5.34-6.41"/><path id="sleeve" class="cls-1" d="M981.82,340.39c-13,8.9-43.51,82.14-52.82,102.79-16.34,36.4-6.45,63.42,16,64.31,8.71.35,17.35-6.61,22.28-17.31l57.24-122.1Z"/></g><g id="lines"><path id="line" class="cls-1" d="M1203.07,510.53c5.93-3.57,10.7-10.92,10.29-17.76L1165.93,371h-.13c-3.36-12.47-16-23.61-29.23-24.86-3.45-.33-16.94-.77-33.79-1.22l16.44,1.68c-9.91,18.68-25,39.7-49.71,38.8-27.37-1-30.74-22.43-30.07-34.95"/><polyline id="line-2" data-name="line" class="cls-1" points="1122.84 421.03 1140.49 463.56 1038.18 465.56"/></g><path id="laptop" class="cls-4" d="M1093.82,489.08l-24.7.1-18.85-99.81a4.44,4.44,0,0,0-4.21-3.82l-167.89-.27c-2.85,0-5,2.92-4.44,6l17.4,106.4c1.23,6.59,9.39,11.87,15.3,11.91,38.39.25,165.21-.25,169.73-.21C1096.91,509.55,1093.82,489.08,1093.82,489.08Z"/></g><g id="hoodie_man" data-name="hoodie man"><path id="chair-2" data-name="chair" class="cls-1" d="M1674.83,509.91V455.3A139.09,139.09,0,0,0,1544.1,316.46"/><g id="man"><g id="body"><g id="hand-4" data-name="hand"><path class="cls-1" d="M1324.16,322.36c-.73-.59-22.88-17.64-28.85-19.73s-7.42,5.11,10.49,17.24c0,0-15.51,9.89-13.07,18.14,1.24,4.2,23.37,25.6,28.81,26.72s26.44-2.43,23.25-15.56S1334.66,330.79,1324.16,322.36Z"/><path class="cls-1" d="M1302.82,348s7.87-.17,4.67-4.2-11.81-11.95-11.81-11.95"/><path class="cls-1" d="M1308.34,342.37s8.79.91,3.51-6c-3.1-4.1-10.55-10.41-10.55-10.41"/><path class="cls-1" d="M1311.54,325.18c-2.58-2.47-4.89-4.46-4.89-4.46"/><path class="cls-1" d="M1335.06,332s-19.58-9.82-21.74-8.84c-3,1.38-.57,9.93,8.09,14.72,0,0-7,7.56-4.08,14.17"/></g><path id="hoodie" class="cls-1" d="M1443,309.09c-16.36,8.08-18.67,22.63-18.61,33.88h0a241.59,241.59,0,0,0-40.27,40c-5.13-10.1-10-19.3-12.08-22.29-5.38-7.61-13.25-.89-17.94-6.12s-6.35-6.85-6.35-6.85-12,16-28.29,15.32c0,0-.75,2.8.29,9.68s-7.45,8.2-5,17.13c1.75,6.36,20.11,48.45,30.52,72.11-6.92,28.5-4.94,48.25-4.94,48.25s242.36,1.92,264.15,1.92c20.18,0,53.4-28.13,27.81-79.45"/><path id="hoodie-2" data-name="hoodie" class="cls-1" d="M1599.57,387.5c-18.27-19.13-35.84-30-47.17-35.66,9.11-18,5.69-36.83-36.28-44.5"/><path id="shrt" class="cls-4" d="M1525.59,331.08,1524,331l.7.8a237.74,237.74,0,0,0-47.63,41.55,95.15,95.15,0,0,1-20-38.62c-5.76,7.82-12,34.39-3.78,58.29,4.79,14,2.88,44.1.08,69,2.26,1.37,21.7-3,24.18-3.77.55-3.31,1.15-6.86,1.83-10.68,13.5-76,55-107.57,55-107.57Z"/><path id="shape-5" data-name="shape" class="cls-4" d="M1550.13,350.19c-9.5,18.83-30.39,38.51-37.65,42.3,18.7-.7,57.25-21.68,64-25.57A194.81,194.81,0,0,0,1550.13,350.19Z"/><path id="shape_II" data-name="shape II" class="cls-4" d="M1427.67,351.6c-.11-2.66-.4-6.06-.42-9.84l-2.86,1.21q-7.64,6-14.36,12.2c5.37,10.43,16.27,26.23,28.17,33.57C1434.64,381.31,1428.48,370.22,1427.67,351.6Z"/><path id="hand_II" data-name="hand II" class="cls-1" d="M1477.68,459.9,1438,464.1l-10,27.57s43.06.26,43.85,0S1492.38,473.81,1477.68,459.9Z"/><g id="lines-2" data-name="lines"><path class="cls-1" d="M1562.84,436.67s-13.12,1.28-16.45,18.5"/><path class="cls-1" d="M1508.86,387.46s-17.83,31.09-19.67,50"/><path class="cls-1" d="M1443.8,388.32S1449,415.1,1447,434"/><path class="cls-1" d="M1529.67,509.22c-18.26-1.42-37.3-3.08-41.17-4.08-7.83-2-4.93-7.74-10.6-9.92s-7.49-3.93-7.49-3.93c7.36-11.73,0-31.16,0-31.16s1.93-.53,7.88-1.75,4-7.35,12.08-8.05,77.2,7.17,77.2,7.17"/></g><path id="welt_II" data-name="welt II" class="cls-4" d="M1318.26,372c-1.6-7.17-1.18-10-1.18-10,15,2.23,29.71-15.51,29.71-15.51s2.43,1.71,7.22,7.53c1.94,2.35,4.62,2.1,6.5,2.51-4.91,20-35.18,25.48-45.18,26.34C1315.82,378.57,1319.48,377.44,1318.26,372Z"/><path id="welt" class="cls-4" d="M1476.94,496c-6.14-2.31-8.1-4.17-8.1-4.17,8-12.42,0-33,0-33s2.08-.56,8.52-1.85a7.39,7.39,0,0,0,4.9-3.38c13.19,15,5.27,41.24,1.75,50.77C1480.91,501.7,1481.59,497.79,1476.94,496Z"/></g><g id="head-3" data-name="head"><path id="ear-2" data-name="ear" class="cls-1" d="M1523.55,274.57c4.21.71,12.52,3.46,10.42,13.93-1.87,9.35-10.26,8.76-15.54,7.38"/><path id="face-3" data-name="face" class="cls-1" d="M1441.88,251.82c-2.1,16-1.21,33.16.4,46.16"/><path id="neck-2" data-name="neck" class="cls-1" d="M1516.08,308.12l.37,14.24,8.23,9.46h0a237.74,237.74,0,0,0-47.63,41.55s-11.53-12.17-18.23-32.42"/><path id="beard" class="cls-1" d="M1513.13,277.25c-2.55,2.57-9.39,17.42-11.06,24.34,0,0-16.94-5.82-41.2-6.17,0,0-13.22.27-18.5,1.87,0,0,1.15,24.51,11.87,37.2s33.4,9.14,44,1.51,12.4-11.27,14.86-19.44,9-38.6,9-38.6Z"/><path id="hair-2" data-name="hair" class="cls-4" d="M1519.88,282.49s7.29-11.28,10.1-23A24.18,24.18,0,0,0,1517.3,232c-8.54-4.13-14.87-.89-14.87-.89s9.06-15.43-4.53-29.06a24.8,24.8,0,0,0-18.2-7.25A23.86,23.86,0,0,0,1458,209.29s-17.78-32.65-54.22-13.33c-3.68,1.95-7.82,7.39-9.8,11-12,22.18,27.63,48.45,48.28,50.53,22.68,2.28,36-1.48,43.25-7C1480.05,253.78,1486.16,287.71,1519.88,282.49Z"/><ellipse id="eye_II-2" data-name="eye II" class="cls-4" cx="1450.19" cy="284.5" rx="2.19" ry="3.38"/><ellipse id="eye-2" data-name="eye" class="cls-4" cx="1470.33" cy="283.94" rx="2.19" ry="3.38"/><path id="brow_II-2" data-name="brow II" class="cls-1" d="M1481.79,270.32a10,10,0,0,0-9.49-3.73"/><path id="brow-2" data-name="brow" class="cls-1" d="M1452.21,266.23s-6.07-1.57-7.59,3.39"/><path id="mouth-2" data-name="mouth" class="cls-1" d="M1475.79,312.39s-1,6.47-7,5.42"/><polyline id="nose-2" data-name="nose" class="cls-1" points="1459.12 285.98 1456.67 307.34 1464.2 305.41"/></g></g><path id="laptop-2" data-name="laptop" class="cls-4" d="M1483.27,501.53l-7.67-7.12h-25.51l-21.82-92.34a4.43,4.43,0,0,0-4.32-3.42H1267a4.43,4.43,0,0,0-4.32,5.46l24.37,103.16a4.43,4.43,0,0,0,4.32,3.42h200.33C1510.12,510.69,1483.27,501.53,1483.27,501.53Z"/><g id="hot_coffe" data-name="hot coffe"><path id="mug" class="cls-4" d="M1650.74,458.16a15.21,15.21,0,0,0-3.19.34v-1.72h-51.1v39.63a13.88,13.88,0,0,0,13.88,13.87h23.35a13.87,13.87,0,0,0,13.87-13.87V488.3a15.24,15.24,0,1,0,3.19-30.14Zm0,24.48a9.39,9.39,0,0,1-3.19-.57V464.73a9.39,9.39,0,0,1,3.19-.57,9.24,9.24,0,1,1,0,18.48Z"/><path id="steam" class="cls-1" d="M1620.65,440c-1.13,12.2,20.83-16.17,17.75-32.54s-14.84-15.76-19.78-25c-3-5.55-2.75-9.19-2.1-11.21a.76.76,0,0,0-1.08-.91c-5.76,3.13-20.88,13.39-15.86,32.8C1607.84,432,1622.93,415.14,1620.65,440Z"/></g></g><g id="woman_with_galsses" data-name="woman with galsses"><path id="chair-3" data-name="chair" class="cls-1" d="M80.28,508.2h-1V451.61A139.09,139.09,0,0,1,218.41,312.52"/><g id="ponytail-2" data-name="ponytail"><ellipse class="cls-4" cx="207.14" cy="333.82" rx="24.93" ry="28.64" transform="translate(-160.06 473.47) rotate(-79)"/><ellipse class="cls-4" cx="182.17" cy="364.91" rx="19.45" ry="22.35" transform="translate(-210.8 474.11) rotate(-79)"/><ellipse class="cls-4" cx="161.02" cy="390.74" rx="17.36" ry="19.95" transform="translate(-253.26 474.25) rotate(-79)"/><ellipse class="cls-4" cx="149.02" cy="420.51" rx="14.35" ry="16.5" transform="translate(-292.2 486.56) rotate(-79)"/><path class="cls-4" d="M120.55,440.44c1.13,8-2.3,11.94-5.91,13.87a2.07,2.07,0,0,0,.5,3.84c10.78,2.29,29.76,4,33-11.09,1.55-7.13-3.07-14.61-11.14-16.93S119.52,433.21,120.55,440.44Z"/><line class="cls-6" x1="185.03" y1="346.5" x2="202.34" y2="358.49"/><line class="cls-6" x1="162.5" y1="374.11" x2="177.83" y2="383.24"/><line class="cls-6" x1="151.88" y1="406.34" x2="156.92" y2="408.64"/><line class="cls-6" x1="138.79" y1="430.24" x2="143.71" y2="432.81"/></g><path id="shirt" class="cls-4" d="M376.23,491.25s-22.51-80.92-32.36-115.56c-8.81-30.94-26.54-39.5-41.33-35.33l-21.91,3.71-1.57,3.47,10.88-2.37c1.18,2.11,15.3,32.56-18.88,40.36-22.41,5.13-48.36-13.08-60.09-29.66l1.4-.25-19.47,3.29c-.81-.08-1.61-.14-2.39-.16-19.2-.44-49.92,69.71-57.34,110.18a24.59,24.59,0,0,1,4-1.73c5.05-11,25.94-7.14,54.38-1,2.28-3.79,5.5-9.13,9.1-15.41.61,1.06,1.22,2.1,1.81,3.09,2.68,4.48,6.34,10.75,10.55,16.94,20.69,4.3,43.76,8.31,66.88,8.49C281.11,479.41,303,491,303,491l-1,.81h27.28l0-.22Z"/><g id="hand_II-2" data-name="hand II"><path class="cls-1" d="M402.73,368.87s18.91-6.73,29.06-18.07c6-6.77,13.78-15.87,13.42-18.61-.68-5.12-10.88,3.64-12.55,4.87"/><path class="cls-1" d="M411.89,351s8.52-8.64,11.28-15.48,4.49-12.07,3.31-12.87-7,1.24-9,5.33c-2.11,6.82-12.13,16.61-12.13,16.61,1.26-.62,7.28-8.44,9.93-13.21s2.24-11.84-6.47-3.22c0,0-9.16,9.55-12.76,12.47,0,0-16.7,7.81-20.42,15.48h0c-2.51,5.16-22.31,44.78-38.32,70.89-10.13,12.42-25.46,84.8,7.94,74.3,7-2,14.39-9.36,16.29-15.54l36.47-114c10.08-5.13,16.77-10.29,21-14.71,5.43-5.71,20.15-28.84,19.83-31.16-.86-6.17-10.77-2.77-15.1,8.9"/></g><g id="head-4" data-name="head"><path id="ear-3" data-name="ear" class="cls-1" d="M238.76,307.29s-19.11,10.39-25.11-8.91c-4.55-14.65,9.49-19.25,16.54-20.62"/><path id="neck-3" data-name="neck" class="cls-1" d="M285.3,333.69l-6.24,13.85,10.88-2.37c1.18,2.11,15.3,32.56-18.88,40.36-22.41,5.13-48.36-13.08-60.09-29.66l18.95-3.44,14.81-35.65"/><path id="face-4" data-name="face" class="cls-1" d="M310.38,268.77c2.61,8.85,10.06,50.88-16.89,61.3s-52.22-10.5-61.82-36.38-3.58-51.16,13.34-58.17S291.5,204.66,310.38,268.77Z"/><path id="mouth-3" data-name="mouth" class="cls-4" d="M282.85,302.89a19.1,19.1,0,0,0,12-1.71,1.71,1.71,0,0,1,2.45,1.29c.56,3.32.41,9.11-6.85,10.86-7.59,1.82-9.2-4.84-9.52-8.56A1.72,1.72,0,0,1,282.85,302.89Z"/><polyline id="nose-3" data-name="nose" class="cls-1" points="287.52 290.93 295.87 288.74 284.32 256.74"/><path id="brow_II-3" data-name="brow II" class="cls-1" d="M259.73,267s4.18-8,10.64-5"/><path id="brow-3" data-name="brow" class="cls-1" d="M285.54,248.2s5.21-7.28,11.21-3.45"/><ellipse id="eye_II-3" data-name="eye II" class="cls-4" cx="276.95" cy="277.08" rx="2.86" ry="4.53" transform="translate(-50.16 61.51) rotate(-11.63)"/><ellipse id="eye-3" data-name="eye" class="cls-4" cx="304.43" cy="271.6" rx="2.86" ry="4.53" transform="translate(-48.5 66.94) rotate(-11.63)"/><g id="glasses"><ellipse class="cls-7" cx="266.43" cy="276.45" rx="18.15" ry="24.53" transform="translate(-42.51 48.49) rotate(-9.63)"/><ellipse class="cls-7" cx="313.49" cy="267.4" rx="18.15" ry="24.53" transform="translate(-40.33 56.24) rotate(-9.63)"/><line class="cls-7" x1="294.59" y1="264.47" x2="283.44" y2="266.58"/><line class="cls-7" x1="247.82" y1="271.05" x2="222.6" y2="279.56"/></g><path id="hair-3" data-name="hair" class="cls-4" d="M318.29,220.51c-20.57-42.13-55.82-18.16-79.42,5.82-18.37-.31-41.69,18.3-46.66,33.21-6,17.95-3.91,43.77,8.61,60.29,13.52,14.87,25.94,19.58,36.84,18.6a38.16,38.16,0,0,1,6.93-18.49s-.45-3.85-6.05-12.54c-2.15,1.09-19.27,9.06-24.89-9-2.42-7.79.42-12.74,4.67-15.87,1.67.52,3.88.26,6.76-1.05C239.2,275,244.34,259,246.21,248.87l67-17.41A7.78,7.78,0,0,0,318.29,220.51Z"/></g><path class="cls-4" d="M457,393l-155,.25a4.11,4.11,0,0,0-3.89,3.52l-15.44,81.77,45.44,7.64-12.25,15.07-19.95,6.41c36.5.11,108.55.32,135,.15,5.46,0,13-4.92,14.14-11l16.06-98.25C461.65,395.69,459.64,393,457,393Z"/><g id="hand-5" data-name="hand"><path class="cls-1" d="M273.73,479.42A158.68,158.68,0,0,1,302,481c8.69,1.35,23.45,3.58,24.93,5.57,3.5,4.67-9.8,7-16.09,3.17"/><path class="cls-1" d="M282.63,506.63s-71.8,6.55-132.16-2.2c-7.25-1.05-26.67-9.91-13.45-37,9.22-21.25,75.84,11.42,142.83,11.94"/><path class="cls-8" d="M304.59,493.94c12,2.93,18.3,3.25,15.8-1.29C319,490,299,481.35,295.08,480.41s-25.4-1.89-25.4-1.89"/><path class="cls-1" d="M290.12,488a144.4,144.4,0,0,1,14.79,5.43c6.44,2.9,10.31,6.12,9.86,7.31s-5.22,3.78-9.42,2.29c-5.91-3.27-19.16-6.61-19.16-6.61,1.38-.31,10.62,3.51,15.69,5.12s9.14,6.47-3.17,5.77l-18.58-.59"/></g></g><g id="cap_man" data-name="cap man"><path id="chair-4" data-name="chair" class="cls-1" d="M496.89,511.89V455.3A139.11,139.11,0,0,1,625.46,316.6"/><g id="man-2" data-name="man"><path id="shirt-2" data-name="shirt" class="cls-1" d="M722.87,332.31A55.33,55.33,0,0,0,686,315.09l-8,.24-1.37,6.31,1.26,47.62-54.33-49.05,1.29-3.3-7,.21c-18.44.55-36.09,8.24-49.91,21.68-16.13,15.69-30.28,71.63-33,105.23-2.44,30.54,73.93,66.76,73.93,66.76L804.21,509S800,412,722.87,332.31Z"/><g id="lines-3" data-name="lines"><path class="cls-1" d="M742.93,430.87s41.5,29.28,68.9,40.26"/><path class="cls-1" d="M562.62,421.46s14.6-6.8,34.58,6.89c0,0,22.56-38.38,20.17-58.7"/><path class="cls-1" d="M641.56,461.51c-2.16-1.19-44.9-32.91-44.9-32.91"/><path class="cls-1" d="M719.53,357.11s3.58,38.08-4.48,43"/></g><polyline id="neck-4" data-name="neck" class="cls-1" points="679.32 309.16 676.61 321.64 677.87 369.26 623.54 320.21 639.03 280.67"/><g id="head-5" data-name="head"><path id="hair_back" data-name="hair back" class="cls-4" d="M713.73,248.51c3.4-23.26-1.92-37.3-10.75-33.56a25.89,25.89,0,0,1,.73,2.57c3.38,14.85,4.11,31,3.8,43.55,0,0,0,2.69-.41,6.7,2.74,1.86,6.44,2.71,11.44,1.44C718.54,269.21,712.09,259.82,713.73,248.51Z"/><path id="face-5" data-name="face" class="cls-1" d="M632.71,249.16s-6.79-41.51,35.2-49c3.91-.7,30.75-4.92,35.8,17.33,3.38,14.85,4.11,31,3.8,43.55,0,.07-.23,23.7-9.47,36.9s-29.94,12.11-40.93,5.72S644.1,294,641,286.31s-8.25-37.07-8.25-37.07Z"/><polyline id="nose-4" data-name="nose" class="cls-1" points="690.17 251.99 694.46 272.35 687.03 271.17"/><ellipse id="eye_II-4" data-name="eye II" class="cls-4" cx="699.64" cy="250.36" rx="2.12" ry="3.28" transform="translate(-20.25 66.14) rotate(-5.34)"/><ellipse id="eye-4" data-name="eye" class="cls-4" cx="679.53" cy="252.63" rx="3.28" ry="2.12" transform="translate(363.63 905.15) rotate(-84.56)"/><path id="brow_II-4" data-name="brow II" class="cls-1" d="M667.53,238a9.71,9.71,0,0,1,9.05-4"/><path id="brow-4" data-name="brow" class="cls-1" d="M695.06,232.33s7.26-3.32,10.5,1.06"/><path id="hair_front" data-name="hair front" class="cls-4" d="M665.46,218s16.29,55.56-20.71,61.55c0,0-21.54,4-26.52-3.62,0,0,15.57-8.41,13.54-17.32,0,0-17.44,19.4-32.83,5.67,0,0,25.49-4.43,23.06-27.39C620.26,220.37,659.68,204.63,665.46,218Z"/><path id="cap" class="cls-4" d="M597.83,226.28l22.53-3.58c2.22-15.21,10.91-37,42-40.86,48.61-6,50.4,41.33,50.4,41.33L600.14,240.8a7.35,7.35,0,0,1-2.31-14.52Z"/><path id="mouth-4" data-name="mouth" class="cls-1" d="M672.12,276.16s3.13,7.19,13.28,5.51"/></g></g><path id="laptop-3" data-name="laptop" class="cls-4" d="M831.19,389.32H660.71A4.82,4.82,0,0,0,656,393L632.93,490.8H590.08s-3.88,20.05,18.76,20.05l195.88.2a4.81,4.81,0,0,0,4.69-3.71l26.48-112.08A4.83,4.83,0,0,0,831.19,389.32Z"/><path id="can" class="cls-4" d="M718.06,456.45l-3.72-4.84h.49a3,3,0,0,0,0-6h-8.7l4.1-7.46a3,3,0,0,0-5.25-2.89l-5.7,10.35H682a3,3,0,0,0,0,6h.5l-3.73,4.84a4,4,0,0,0-.85,2.43V504.5a4.27,4.27,0,0,0,2.13,3.59c1.78,1.1,4.06,2.82,4.21,4.46h28.31c.16-1.64,2.43-3.36,4.21-4.46a4.28,4.28,0,0,0,2.14-3.59V458.88A4,4,0,0,0,718.06,456.45Z"/></g><line id="line-3" data-name="line" class="cls-1" x1="3" y1="510.41" x2="1766.67" y2="510.41"/></g></g></svg>