<svg xmlns="http://www.w3.org/2000/svg" viewBox="0 0 1662.57 734.38"><defs><style>.cls-1,.cls-2,.cls-4,.cls-5,.cls-6{fill:none;}.cls-1,.cls-6,.cls-8{stroke:#111;}.cls-1,.cls-2,.cls-4,.cls-5,.cls-6,.cls-8{stroke-linecap:round;stroke-linejoin:round;}.cls-1,.cls-2,.cls-8{stroke-width:6px;}.cls-2,.cls-4,.cls-5{stroke:#6d6d6d;}.cls-3{fill:#111;}.cls-4{stroke-width:8px;}.cls-5{stroke-width:4.5px;}.cls-6{stroke-width:5.64px;}.cls-7{fill:#6d6d6d;}.cls-8{fill:#fff;}</style></defs><g id="Layer_2" data-name="Layer 2"><g id="outline_III" data-name="outline III"><g id="whiteboard"><path id="shape" class="cls-1" d="M971.26,276.56h233.79a3.39,3.39,0,0,1,3.39,3.39V456.19"/><line id="shape-2" data-name="shape" class="cls-1" x1="809.82" y1="276.56" x2="908.97" y2="276.56"/><line id="shape-3" data-name="shape" class="cls-2" x1="736.88" y1="276.56" x2="753.83" y2="276.56"/><path id="shape-4" data-name="shape" class="cls-1" d="M495.73,602V280a3.39,3.39,0,0,1,3.39-3.39h27.72"/><g id="layout_III" data-name="layout III"><polyline class="cls-1" points="1057.62 591.43 829.78 591.43 829.78 305.29 894.09 305.29"/><polyline class="cls-1" points="960.18 305.29 1060.21 305.29 1060.21 492.13"/><polygon class="cls-1" points="864.72 351.06 856.51 351.06 856.51 329.52 878.5 329.52 864.72 351.06"/><line class="cls-1" x1="857.6" y1="350.47" x2="865.19" y2="348.75"/><rect class="cls-1" x="856.51" y="438.44" width="47.89" height="47.89"/><line class="cls-1" x1="904.4" y1="438.44" x2="856.51" y2="486.33"/><polyline class="cls-1" points="969.78 466.75 969.78 486.33 921.89 486.33 921.89 438.44 969.78 438.44 969.78 458.12"/><line class="cls-1" x1="969.78" y1="438.44" x2="921.89" y2="486.33"/><polyline class="cls-1" points="987.28 456.19 987.28 438.44 1035.17 438.44 1035.17 468.46"/><line class="cls-1" x1="1035.17" y1="438.44" x2="1014.43" y2="459.18"/><polyline class="cls-1" points="904.4 391.66 904.4 424.61 856.51 424.61 856.51 416.14"/><rect class="cls-1" x="921.89" y="376.71" width="47.89" height="47.89"/><line class="cls-1" x1="969.78" y1="376.71" x2="921.89" y2="424.61"/><rect class="cls-1" x="987.28" y="376.71" width="47.89" height="47.89"/><line class="cls-1" x1="1035.17" y1="376.71" x2="987.28" y2="424.61"/><rect class="cls-1" x="872.17" y="523.31" width="49.44" height="41.65"/><polyline class="cls-1" points="1036.36 564.96 856.51 564.96 856.51 510.71 995.16 510.71"/><line class="cls-1" x1="941.6" y1="524.89" x2="1000.08" y2="524.89"/><line class="cls-1" x1="941.6" y1="535.33" x2="1010.19" y2="535.33"/><line class="cls-1" x1="939.27" y1="343.22" x2="969.56" y2="343.22"/><line class="cls-1" x1="979.29" y1="343.22" x2="1033.42" y2="343.22"/></g><g id="layout_II" data-name="layout II"><polyline class="cls-1" points="890.84 730.52 890.84 608.92 1074.56 608.92"/><rect class="cls-1" x="917.57" y="633.16" width="65.11" height="21.53"/><line class="cls-1" x1="918.67" y1="654.11" x2="982.67" y2="633.16"/><rect class="cls-1" x="917.57" y="680.35" width="47.89" height="47.89"/><line class="cls-1" x1="965.46" y1="680.35" x2="917.57" y2="728.24"/><rect class="cls-1" x="982.96" y="680.35" width="47.89" height="47.89"/><line class="cls-1" x1="1030.85" y1="680.35" x2="982.96" y2="728.24"/><rect class="cls-1" x="1048.34" y="680.35" width="47.89" height="47.89"/><line class="cls-1" x1="1096.23" y1="680.35" x2="1048.34" y2="728.24"/><line class="cls-1" x1="1000.33" y1="646.86" x2="1030.63" y2="646.86"/><line class="cls-1" x1="1040.35" y1="646.86" x2="1094.48" y2="646.86"/></g><g id="layout"><polyline class="cls-1" points="562.63 348.6 790.76 348.6 790.76 634.74 597 634.74"/><line class="cls-1" x1="560.33" y1="595.73" x2="560.33" y2="402.18"/><polyline class="cls-1" points="589.19 372.84 652.16 372.84 652.16 394.37 638.56 394.37"/><line class="cls-1" x1="612.89" y1="385.69" x2="652.16" y2="372.84"/><line class="cls-1" x1="587.06" y1="422.96" x2="627.94" y2="422.96"/><circle class="cls-1" cx="588.15" cy="440.3" r="3.19"/><circle class="cls-1" cx="588.15" cy="456.74" r="3.19"/><circle class="cls-1" cx="588.15" cy="473.19" r="3.19"/><circle class="cls-1" cx="588.15" cy="489.63" r="3.19"/><line class="cls-1" x1="599.78" y1="440.3" x2="631.69" y2="440.3"/><line class="cls-1" x1="599.78" y1="456.74" x2="622.49" y2="456.74"/><line class="cls-1" x1="599.78" y1="473.19" x2="614.22" y2="473.19"/><line class="cls-1" x1="599.78" y1="489.63" x2="635.51" y2="489.63"/><line class="cls-1" x1="587.06" y1="508.36" x2="652.16" y2="508.36"/><circle class="cls-1" cx="588.15" cy="525.7" r="3.19"/><circle class="cls-1" cx="588.15" cy="542.14" r="3.19"/><line class="cls-1" x1="599.78" y1="525.7" x2="642.65" y2="525.7"/><line class="cls-1" x1="599.78" y1="542.14" x2="616.66" y2="542.14"/><polyline class="cls-1" points="705.97 415.96 765.72 415.96 765.72 492.82 669.82 492.82 669.82 463.53"/><line class="cls-1" x1="669.81" y1="492.82" x2="765.72" y2="415.96"/><rect class="cls-1" x="669.81" y="510.86" width="25.71" height="25.71"/><line class="cls-1" x1="695.52" y1="510.86" x2="669.81" y2="536.57"/><rect class="cls-1" x="704.91" y="510.86" width="25.71" height="25.71"/><line class="cls-1" x1="730.62" y1="510.86" x2="704.91" y2="536.57"/><rect class="cls-1" x="740.01" y="510.86" width="25.71" height="25.71"/><line class="cls-1" x1="765.72" y1="510.86" x2="740.01" y2="536.57"/><rect class="cls-1" x="686.59" y="566.62" width="38.4" height="33.53"/><rect class="cls-1" x="669.81" y="554.02" width="97.09" height="46.13"/><line class="cls-1" x1="737.17" y1="568.21" x2="756.2" y2="568.21"/><line class="cls-1" x1="737.17" y1="578.64" x2="756.2" y2="578.64"/><line class="cls-1" x1="669.81" y1="386.54" x2="700.11" y2="386.54"/><line class="cls-1" x1="709.84" y1="386.54" x2="763.97" y2="386.54"/></g><g id="post-it_s" data-name="post-it&apos;s"><rect class="cls-3" x="672.29" y="289.69" width="46.42" height="46.42"/><rect class="cls-3" x="617.89" y="661.84" width="49.95" height="49.95"/><rect class="cls-3" x="599.28" y="659.51" width="46.42" height="46.42"/><rect class="cls-3" x="1095.4" y="336.14" width="46.42" height="46.42"/><rect class="cls-3" x="1109.1" y="386.28" width="46.42" height="46.42"/><rect class="cls-3" x="1127.59" y="447.86" width="46.42" height="46.42"/><rect class="cls-3" x="1074.15" y="437.64" width="46.42" height="46.42"/><rect class="cls-3" x="1050.94" y="386.89" width="46.42" height="46.42"/><rect class="cls-3" x="1041.34" y="331.67" width="46.42" height="46.42"/><rect class="cls-3" x="723.48" y="657.14" width="46.42" height="46.42"/><polygon class="cls-3" points="708.17 453.83 669.75 452.6 663.71 414.21 677.56 407.41 708.17 407.41 708.17 453.83"/><rect class="cls-3" x="742.42" y="658.61" width="49.95" height="49.95"/><rect class="cls-3" x="806.57" y="597.22" width="46.42" height="46.42"/><rect class="cls-3" x="849.92" y="649.42" width="46.42" height="46.42"/><rect class="cls-3" x="730.62" y="316.47" width="46.42" height="46.42"/><rect class="cls-3" x="616.93" y="318.14" width="46.42" height="46.42"/><rect class="cls-3" x="632.28" y="603.23" width="46.42" height="46.42"/></g></g><g id="woman"><g id="hand"><path class="cls-1" d="M868.4,362.82c-8.79,5-13.37,12.19-20,22.12-.57.86-17.17,27-18.88,33.83s6.38,7.67,18-13.32c0,0,12.48,16.14,21.34,12.62,4.51-1.79,25.91-28.37,26.61-34.49"/><path class="cls-1" d="M878.86,405.92s-1-8.66-5.1-4.73-12,14.24-12,14.24"/><path class="cls-1" d="M872.13,400.4s.12-9.8-7-3.28c-4.21,3.84-10.43,12.69-10.43,12.69"/><path class="cls-1" d="M864.88,395s-2.08-7-6.2-3.07-10.29,12.51-10.29,12.51"/><path class="cls-1" d="M858,372s-8.88,22.59-7.57,24.88c1.82,3.19,11-.37,15.44-10.42,0,0,9,6.94,16,3.1"/></g><g id="body"><path id="shirt" class="cls-1" d="M978.42,159.57c-19.47,12.5-35.17,26.34-39.54,38-7.7,20.62-36.26,94.85-36.26,94.85l-41.17,64,45,34.45,43.95-66.36,19.61-48,92.81-.26h0l100.76.26c11-.18,17.34-10.87,14.81-20.41,0,0-34.88-67.69-53.53-89.85-16.08-24.65-37.19-45.66-65.19-41.42a99.47,99.47,0,0,0-10.12,2.12"/><polyline id="line" class="cls-1" points="1038.11 249.12 1099.11 232.74 1071.09 200.04"/><g id="hand_II" data-name="hand II"><path class="cls-1" d="M1024,253.57a134.06,134.06,0,0,0-24,1.72c-7.2,1.25-19.43,3.34-20.29,5-2,4,9.89,5.78,14.5,2.45"/><path class="cls-1" d="M994.93,268.8c-6.63,1.57-10,1.27-9-2,.74-2.33,16.46-10.53,19.7-11.47s32.51-5.2,32.51-5.2l14.57,27.68-43.72.69c-10.44.76-8.67-4.5-4.68-5.92s11.18-4.77,12.44-4.53c0,0-10.71,3-15.12,5.83-3.3,1.31-7.93-.79-8.57-1.79s2-3.77,7-6.3a100.5,100.5,0,0,1,11.59-4.78"/></g></g><g id="head"><g id="head-2" data-name="head"><path id="neck" class="cls-1" d="M973.52,149.91l6.55,12.9-10.48,6.7c.36,2.25,23.37,27.91,53.16,13.85,19.54-9.23,15.25-31.26,14.3-50.32l-14.1,7.45-14-34"/><path id="ear" class="cls-1" d="M1006.83,103.2s20.36-1.8,15-20c-4.06-13.83-17.44-10.13-23.67-7.54"/><path id="face" class="cls-1" d="M930.73,110.3c2.56,8.29,18.59,45.05,45.1,39.2s35.42-35.38,29.47-60.62S981.5,47,964.61,50.28,912.17,50.3,930.73,110.3Z"/><path id="mouth" class="cls-3" d="M970,122.69a17.9,17.9,0,0,1-10.25,4.88,1.61,1.61,0,0,0-1.25,2.29c1.29,2.89,4.42,7.34,11,4.93,6.89-2.52,4.69-8.57,3-11.65A1.61,1.61,0,0,0,970,122.69Z"/><polyline id="nose" class="cls-1" points="960.15 115.75 952.48 118.38 946.73 85.75"/><path id="brow" class="cls-1" d="M966.47,84.12s-7.4-4.05-10.93,1.6"/><path id="brow_II" data-name="brow II" class="cls-1" d="M939.57,91S931.7,88,929,94.16"/><ellipse id="eye" class="cls-3" cx="963.72" cy="102" rx="2.69" ry="4.26" transform="translate(31.83 367.98) rotate(-21.97)"/><ellipse id="eye_II" data-name="eye II" class="cls-3" cx="939.45" cy="112.21" rx="2.69" ry="4.26" transform="translate(26.25 359.64) rotate(-21.97)"/><g id="hair"><g id="ponytail"><ellipse class="cls-3" cx="1033.24" cy="152.9" rx="18.74" ry="21.54" transform="translate(418.81 997.56) rotate(-62.38)"/><ellipse class="cls-3" cx="1033.64" cy="185.07" rx="16.73" ry="19.23" transform="translate(390.52 1015.16) rotate(-62.38)"/><path class="cls-3" d="M1038.66,222.43c-3.76,6.65-13,8.58-20.71,4.32s-10.84-13.11-7.08-19.76,13.07-9.1,20.74-4.83S1042.43,215.78,1038.66,222.43Z"/><path class="cls-3" d="M1034.22,246.84c-5.67,5.35-5.45,10.37-3.9,14a2,2,0,0,1-2.68,2.59c-9.5-4.76-24.83-14.87-18.2-28.21,3.12-6.3,11.1-9.16,18.57-6.05S1039.33,242,1034.22,246.84Z"/><line class="cls-4" x1="1042.19" y1="136.81" x2="1021.91" y2="135.93"/><line class="cls-4" x1="1042.55" y1="171.15" x2="1025.48" y2="169.31"/><line class="cls-4" x1="1031.13" y1="202.31" x2="1025.95" y2="201.02"/><line class="cls-4" x1="1026.61" y1="228.19" x2="1021.36" y2="227.17"/><path class="cls-3" d="M1036.55,84.22c-6.28-3.49-3.79,1.87-10,2.9-.74,14.4-12.69,14.82-18,14.27-4,11,1.65,24.37,13.77,31.11,13.33,7.4,26.07,2.28,32.6-9.27S1049.88,91.62,1036.55,84.22Z"/></g><path id="hair-2" data-name="hair" class="cls-3" d="M1018.41,46.41C1009.89,37,980.26,32.2,966,41.92c-30.94-6.5-71-6.93-65.2,36.74a7.31,7.31,0,0,0,9.64,6l79.85-24.53a54.44,54.44,0,0,1,10.09,14.71c6.76-2.34,17.85-4,21.48,8.37,5,17.08-12.55,19.74-14.79,20a60.29,60.29,0,0,1-2.37,17.82c18.19-1,36-6,37-21.93C1042.88,79.62,1030.31,59.62,1018.41,46.41Z"/></g><g id="glasses"><ellipse class="cls-5" cx="969.13" cy="93.46" rx="17.06" ry="23.06" transform="translate(45.58 401.69) rotate(-23.96)"/><ellipse class="cls-5" cx="927.59" cy="110.84" rx="17.06" ry="23.06" transform="translate(34.94 386.32) rotate(-23.96)"/><line class="cls-5" x1="940.86" y1="98.72" x2="950.68" y2="94.57"/><line class="cls-5" x1="980.89" y1="79.55" x2="1005.06" y2="73.1"/></g></g></g></g><g id="man"><g id="hand_II-2" data-name="hand II"><path id="hand-2" data-name="hand" class="cls-1" d="M1030.88,474.47l-5.67-7.32a24.36,24.36,0,0,0-16.91-9.39c-7.48-.71-16.27-1.57-16.27-1.57s-18,1.53-20.82,1.68S954,463.4,954.42,465c1,3.89,12.7,2.72,18.82.94s18.91,2.13,18.91,2.13,2.47,11.35.06,11.12-15.5-2.72-17.93,1.15-1.89,7.08,3.27,7,12,4.09,12,4.09,18.81-1.18,23.6-3c.79-.3,1.72-.51,3,1.53"/></g><path id="shirt-2" data-name="shirt" class="cls-1" d="M1195.83,522.73a50.92,50.92,0,0,0-41.49-3.33L1103,537.62l-65.73-69.86-44.73,46.92,83.49,96a19.64,19.64,0,0,0,21.77,5.48l30.13-11.4-31.16,98"/><path id="shirt-3" data-name="shirt" class="cls-1" d="M1291.36,730a21.47,21.47,0,0,0,9.36-18.11L1299,604.6a40.46,40.46,0,0,0-22-37.41l-23-12.6"/><g id="hand_II-3" data-name="hand II"><path class="cls-6" d="M1135.64,698.78a124,124,0,0,0-25,1.76c-7.7,1.4-20.79,3.73-22.11,5.73-3.12,4.71,8.63,7,14.22,3.09"/><path class="cls-1" d="M1101.57,718.83c-7.67,1.85-11.29,1.4-9.27-2.72,1.43-2.93,20.8-13,24.6-14.07s36.91-5.91,36.91-5.91l8.49,35.19h-48c-11.61.74-8.26-5.85-3.52-7.56s13.49-5.79,14.8-5.46c0,0-12.5,3.57-18.08,7.05-4,1.58-8.45-1.16-8.88-2.44s3.23-4.7,9.3-7.8a126.64,126.64,0,0,1,14-5.79"/></g><polyline id="line-2" data-name="line" class="cls-1" points="1150.81 696.39 1239.19 676.76 1236.11 633.91"/><g id="head-3" data-name="head"><path id="neck-2" data-name="neck" class="cls-1" d="M1257.61,533.8a24,24,0,0,1-.53,6.76l-5.15,23.25a24.1,24.1,0,0,1-28.75,18.32h0a24.1,24.1,0,0,1-18.32-28.75l3.58-16.17"/><path id="face-2" data-name="face" class="cls-1" d="M1276.29,498.89s19.27-37.53-18.52-57.6c-3.52-1.87-27.84-14.16-39.52,5.52-7.8,13.14-13.47,28.34-17,40.41,0,.07-7.08,22.7-2.32,38.14s24.84,20.8,37.3,18.08,15.43-5.29,20.76-11.63,19.3-32.85,19.3-32.85Z"/><path id="hair_II" data-name="hair II" class="cls-3" d="M1201.21,487.22c3.57-12.07,9.24-27.27,17-40.41.36-.61.74-1.18,1.12-1.73-6.36-4.95-16.62,5.27-23.71,26.26C1192,482.2,1182,487.67,1182,487.67c7.67,6.71,14.57,3.79,19.13,0Z"/><polyline id="nose-2" data-name="nose" class="cls-1" points="1219.08 480.26 1210.94 500.71 1217.65 503.17"/><ellipse id="eye_II-2" data-name="eye II" class="cls-3" cx="1211.66" cy="478.04" rx="3.29" ry="2.12" transform="translate(294.62 1403.07) rotate(-66.78)"/><ellipse id="eye-2" data-name="eye" class="cls-3" cx="1230.16" cy="486.4" rx="3.29" ry="2.12" transform="translate(490.06 1582.82) rotate(-77.55)"/><path id="brow_II-2" data-name="brow II" class="cls-1" d="M1246.48,480.26a9.74,9.74,0,0,0-7.42-6.56"/><path id="brow-2" data-name="brow" class="cls-1" d="M1221.29,465.24s-5.91-5.41-10.35-2.23"/><path id="cap" class="cls-3" d="M1316.64,487.79l-20.4-10.35c2.56-15.2,1-38.71-27.53-52-44.56-20.7-60.86,23.93-60.86,23.93L1310,501a7.38,7.38,0,0,0,6.67-13.16Z"/><path id="mouth-2" data-name="mouth" class="cls-3" d="M1214.28,518.15c-4.55-9.26,16.69-3,16.69-3S1225,536.51,1214.28,518.15Z"/><path id="hair-3" data-name="hair" class="cls-3" d="M1293.83,492.8l-43.08-21.74c-5,15.59-11.27,46.9,15.41,55.11,0,0,20.86,6.91,26.86.06,0,0-14.32-10.51-11.07-19.08,0,0,14.66,21.68,31.84,10.16C1313.79,517.31,1293.45,510.79,1293.83,492.8Z"/></g></g><g id="sitting_woman" data-name="sitting woman"><g id="hand-3" data-name="hand"><path id="finger" class="cls-1" d="M620.57,572.88s20.17-5.45,31.63-16.4c6.83-6.53,15.6-15.35,15.45-18.22-.3-5.38-11.59,2.89-13.43,4"/><path id="hand-4" data-name="hand" class="cls-1" d="M613.57,579.88l1.83-4.47c10.87-4.51,18.24-9.32,23-13.56,6.11-5.49,23.26-28.32,23.12-30.75-.39-6.47-11-3.75-16.4,8"/><path id="hand-5" data-name="hand" class="cls-1" d="M631.52,555.05s9.56-8.28,13-15.16,5.64-12.17,4.48-13.1-7.32.73-9.82,4.8c-2.74,6.92-13.94,16.26-13.94,16.26,1.35-.54,8.24-8.17,11.38-12.9s3.29-12.12-6.45-3.87c0,0-10.29,9.17-14.26,11.9,0,0-18,6.76-22.47,14.41h0c-1,1.77-4.51,7.58-9.39,15.49"/></g><polyline id="sleeve" class="cls-1" points="557.7 603.21 575.47 570.87 616.7 580.62 581.35 668.32"/><path id="shape-5" data-name="shape" class="cls-1" d="M376.37,565.81l-32.44-1.19,0-.32H332.67c-12.2,0-28.81,13-30.63,27.08-3.34,25.86-19.84,61.49-26.75,91.23a457.2,457.2,0,0,0-13,47.92"/><path id="shape-6" data-name="shape" class="cls-1" d="M476.07,602a32.21,32.21,0,0,0-4-7.79c-15.86-21.43-41.33-25.9-52.89-26.8"/><g id="head-4" data-name="head"><g id="earrings_back" data-name="earrings back"><path class="cls-2" d="M374.53,562c-6.18.76-12.38-6.54-13.91-16.46a24.38,24.38,0,0,1,1.68-14.12"/><path class="cls-2" d="M460.05,558.94c-6.18.76-12.38-6.54-13.92-16.46"/></g><path id="ponytail-2" data-name="ponytail" class="cls-3" d="M367.65,459.73c13.17-9.72,21.89-60.67-13.82-94.85-36.16-34.59-66.26.76-72.95,10.07s-11.73,34.92,19.54,59.12S352.6,470.83,367.65,459.73Z"/><path class="cls-7" d="M386.77,482.29l-.82.53a11.25,11.25,0,0,1-15.09-3l-9.62-13.46a10.05,10.05,0,0,1,2.61-14.44l.82-.53a11.24,11.24,0,0,1,15.08,3l9.62,13.46A10,10,0,0,1,386.77,482.29Z"/><path id="ear-2" data-name="ear" class="cls-1" d="M376.38,529.38a12.28,12.28,0,0,1-12.1.74c-6.07-2.89-8.75-9.92-6-15.69A11.57,11.57,0,0,1,369.14,508"/><path id="ear-3" data-name="ear" class="cls-1" d="M449.14,504.5a12.49,12.49,0,0,1,8.7.81c6.07,2.89,8.76,9.92,6,15.69a11.73,11.73,0,0,1-13.25,6.15"/><path id="neck-3" data-name="neck" class="cls-1" d="M419.14,565.47l.23,5.9,14.48,3.18c.43,1.26.89,13.59-4.53,24"/><path id="neck-4" data-name="neck" class="cls-1" d="M417.77,610.19c-4.91,2.44-11.28,3.55-19.49,2.43-24.45-3.33-35.88-25.21-42.43-45.23l20.74,1.45.08-41.31"/><ellipse id="face-3" data-name="face" class="cls-1" cx="411.55" cy="515.23" rx="38.45" ry="49.43" transform="translate(-86.32 82.84) rotate(-10.41)"/><path id="nose-3" data-name="nose" class="cls-1" d="M415,527l7.33-.25a1.17,1.17,0,0,0,1.09-1.48l-5.27-20"/><path id="brow_II-3" data-name="brow II" class="cls-1" d="M394.71,495.54s6.48-5.81,11.9-1"/><path id="brow-3" data-name="brow" class="cls-1" d="M424.3,493.71s8.3-3.11,11.64,3.23"/><ellipse id="eye_II-3" data-name="eye II" class="cls-3" cx="405.69" cy="511.88" rx="4.38" ry="2.93" transform="translate(-119.11 900.7) rotate(-88.14)"/><ellipse id="eye-3" data-name="eye" class="cls-3" cx="433.03" cy="512.91" rx="2.92" ry="4.39" transform="translate(-35.92 32.62) rotate(-4.14)"/><g id="earrings_front" data-name="earrings front"><path class="cls-2" d="M455.75,521.61c6.25-1,11.48,7.34,13,17.38s-2.26,19-8.51,19.92l-.22,0"/><path class="cls-2" d="M369.14,525.57c6.25-1,12.58,6.39,14.13,16.43s-2.27,19-8.52,19.92l-.22,0"/></g><path id="mouth-3" data-name="mouth" class="cls-1" d="M416.46,541.41s-16.72,10.37-17.57-12.15Z"/><path id="hair-4" data-name="hair" class="cls-3" d="M397.67,455.14l-.09.11c-12.51,1.83-26.48,7.56-34.26,15.93-13.78,14.81-7.45,46.63,6.59,48.8a33.65,33.65,0,0,0,3.51.33c-.12-.8-.23-1.6-.32-2.41a62.58,62.58,0,0,1-.38-8.7c19.13-7.15,19.1-35.83,19.06-38.23,4.06,3.24,9.38,8.78,8,14.84l42.33,2.67a61.58,61.58,0,0,1,7.9,24.07l0,.34c4-5.67,4.14-14.5.82-23.86l14.31.91S478.26,441.6,397.67,455.14Z"/></g><g id="lines"><polyline class="cls-1" points="406.09 672.18 350.84 671.98 355.85 633.12"/><path class="cls-1" d="M280.79,686.68c-4,15.75,9.1,34.71,25.35,35.05l27.43-.06"/><path class="cls-1" d="M351.68,672.11s-13.51-6-23.26,8.5"/><path class="cls-1" d="M351.4,667.52s-12.54-11.28-28.27,1.67"/></g><path id="laptop" class="cls-1" d="M332.5,706.7l66.08.69L420.35,605a4.6,4.6,0,0,1,4.43-3.84l161,2.45c2.93,0,5.1,3.13,4.43,6.3L569.74,719.12c-1.42,6.76-10,12-16,11.9-39.55-.64-198.83-2.91-203.49-3C328.84,727.71,332.5,706.7,332.5,706.7Z"/></g><g id="designer"><g id="hand-6" data-name="hand"><path class="cls-1" d="M662.4,414.67s12.36-4,18.12-11.54c10.07-13.25-11.34-1.83-23.49-.1"/><path id="hand-7" data-name="hand" class="cls-1" d="M578.33,310.57l-17.6,42.64s39.72,31.39,68.86,38.42c25.11,7.27,27.13,10.75,27.13,10.75s10.14,20.67,11.24,28.27,5.11,32.32,1.16,32.87c-2.81.39-7.47-11.79-9.64-18.15"/><path id="hand-8" data-name="hand" class="cls-1" d="M636,433c-3.86-5.85-9.89-11.43-9.78-15.88,0,0-39.72,3.07-106.23-36.43-6.85-4.07-9.35-12.9-9.81-20.85-1.12-19.4,2.13-57.91,17.89-85.55"/><path class="cls-1" d="M662,430.62s-.77,18.21-6.69,20.06-6.69-3.21-6.69-3.21"/><path class="cls-1" d="M654.69,430.54s-2.07,16.16-8.11,17.57-6.44-3.7-6.44-3.7"/><path class="cls-1" d="M645.68,430.23s-2.79,19.39-10.13,12.68-6.89-10.46-6.89-10.46,2.87-5.49,8.73,2.49"/></g><path id="arm" class="cls-1" d="M745.09,190.07c10.46,17.5,27,45.41,35.25,60"/><path id="shirt-4" data-name="shirt" class="cls-1" d="M683,149.84c45.88-5.08,64.79,32.53,64.79,32.53S734.25,214.45,720,224.59c0,0,30.71,23.29,16.84,52L599.66,277.8l-19.07,35.1-55.88-39.65s29.12-57.51,37.3-64c4.34-3.46,19.15-17.34,42-31"/><g id="head-5" data-name="head"><path id="neck-5" data-name="neck" class="cls-1" d="M663.14,174c3.59,9.1,5.5,25.67-19.66,37.73-23,11-54.15-2.67-65.94-14.46l28.65-20.92,4.5-19.51"/><path id="ear-4" data-name="ear" class="cls-1" d="M604,130.87s-22-1.55-17-21c3.75-14.78,18.31-11.09,25.12-8.44"/><path id="face-4" data-name="face" class="cls-1" d="M686.14,137c-2.39,8.86-18,48.27-46.78,42.52s-39.66-37-34.38-63.94,23.75-45,42-41.8S703.44,72.87,686.14,137Z"/><g id="hair-5" data-name="hair"><rect class="cls-7" x="613.24" y="32.9" width="10.54" height="18.55" transform="translate(1236.47 -7.42) rotate(171.51)"/><circle class="cls-3" cx="613.87" cy="18.56" r="18.56"/><path id="hair-6" data-name="hair" class="cls-3" d="M625.37,44.75c17.17-2.07,35-1.16,49.19,7.82,42.42,29.74,35.93,64.74,13.41,77h0c5.42-24.63,1.64-37.8-5.81-45.07-12.11,13.08-44.6,20.24-72.18,15.35-.11.23-.21.47-.31.71-7.37-2.37-19.38-3.93-22.73,9.29-4.62,18.25,14.35,20.77,16.79,21,0,1.52,6.76,26.9,6.76,26.9l-4.26,14.36-65.54-17.92A5.58,5.58,0,0,1,537,146C548.49,125.46,570,52.18,625.37,44.75Z"/></g><path id="mouth-4" data-name="mouth" class="cls-1" d="M649.53,157.68s-7.36,1.21-8.47-7.6"/><polyline id="nose-4" data-name="nose" class="cls-1" points="654.74 143.36 663.1 146.02 667.84 111.2"/><path id="brow-4" data-name="brow" class="cls-1" d="M644.42,101.46s8.25-3.5,11.57,2.88"/><path id="brow_II-4" data-name="brow II" class="cls-1" d="M679.05,114s7.12-1.39,8.68,4.22"/><ellipse id="eye-4" data-name="eye" class="cls-3" cx="644.38" cy="120.99" rx="4.5" ry="2.91" transform="translate(281.3 666.91) rotate(-67.01)"/><ellipse id="eye_II-4" data-name="eye II" class="cls-3" cx="675.17" cy="132.56" rx="4.5" ry="2.91" transform="translate(289.42 702.31) rotate(-67.01)"/><g id="glasses-2" data-name="glasses"><ellipse class="cls-2" cx="639.9" cy="112.77" rx="24.36" ry="18.48" transform="translate(321.77 679.33) rotate(-70.68)"/><ellipse class="cls-2" cx="689.06" cy="131.12" rx="24.36" ry="18.48" transform="translate(337.35 737.99) rotate(-70.68)"/><line class="cls-2" x1="672.15" y1="121.41" x2="658.32" y2="116.52"/><line class="cls-2" x1="623.46" y1="101.98" x2="606.23" y2="99.85"/></g></g><g id="hand-9" data-name="hand"><path class="cls-1" d="M800.36,279.19c4.09,11.31,0,36.39,9.08,21.09,3.09-13.14-.9-30-7.26-37.33-4.55-6.18-7.84-13.49-23.82-11.66s-16.74,10.86-16.74,10.86-8.84,13.23-7,19,3.64,6.55,2,10.13,5.72,11.4,8.64,5.81,3-18.51,2.19-21c-.71-2.21,3.83-4.06,4.73-4.41l.15-.05h.5c4.19,4.95,3.86,38.19,8.32,39.12s5.15-2,5.15-2"/><path class="cls-1" d="M795.56,309.5a8,8,0,0,1-4.12,2.1c-7.32,1.29-4.67-26.74-8.09-32.91"/><path class="cls-1" d="M804.79,304c-1.46,3.54-3.37,6.48-5.75,6.75-6.26.72-4.27-24.6-6.63-32"/></g></g><line id="line-3" data-name="line" class="cls-8" x1="3" y1="730.44" x2="1659.57" y2="730.44"/></g></g></svg>