<svg xmlns="http://www.w3.org/2000/svg" viewBox="0 0 1605 829.17"><defs><style>.cls-1{fill:#111;}.cls-2{fill:none;}.cls-2,.cls-4{stroke:#111;stroke-linecap:round;stroke-linejoin:round;stroke-width:6px;}.cls-3{fill:#6d6d6d;}.cls-4{fill:#fff;}</style></defs><g id="Layer_2" data-name="Layer 2"><g id="outline"><g id="screen"><g id="shape"><polygon class="cls-1" points="1047.85 825.88 1053.69 824.52 1053.18 822.3 1047.02 822.3 1047.85 825.88"/><path class="cls-1" d="M1366.73,3a3,3,0,0,0-6,0v.39h6Z"/><polygon class="cls-1" points="1053.18 822.3 1089.09 822.3 1038.85 631.28 1008.76 631.28 1053.18 822.3"/><path class="cls-1" d="M1395.46,3.39h-28.73s0,523.56,0,523.62h39.75V14.39A11,11,0,0,0,1395.46,3.39Z"/><path class="cls-1" d="M398.66,3.39a11,11,0,0,0-11,11v600a11,11,0,0,0,11,11H593.18V572.64H447.41a11,11,0,0,1-11-11V53.43a11,11,0,0,1,11-11h860.77a11,11,0,0,1,11,11v403.1l41.55,11.71V3.39Z"/><path class="cls-1" d="M945.16,728.52a39.73,39.73,0,0,0-79.11-5.31l30.81,0,.06,44.16a39.74,39.74,0,0,0,48.24-38.81Z"/><path class="cls-1" d="M1002.6,631.28h-210a3,3,0,0,1,0-6h246.67l96,0-11.07-52.67H758.43v52.74h30.65l-26.7,98,97.63-.14a45.74,45.74,0,1,1,36.92,50.23L897,822.3h150Z"/></g><g id="shape-2" data-name="shape"><path class="cls-2" d="M756.81,478.43V408.9a27,27,0,0,1,27-27h458.68a27,27,0,0,1,27,27v20.73"/><line class="cls-2" x1="1116.84" y1="529.03" x2="783.77" y2="529.03"/></g><rect id="shape-3" data-name="shape" class="cls-1" x="756.81" y="207.57" width="512.6" height="147.09" rx="26.96"/><path id="dashed_line" data-name="dashed line" class="cls-1" d="M538.72,532.33h-15a3,3,0,0,1,0-6h15a3,3,0,0,1,0,6Zm-30,0h-5.36a28.58,28.58,0,0,1-10.52-2,3,3,0,0,1,2.21-5.58,22.59,22.59,0,0,0,8.31,1.57h5.36a3,3,0,1,1,0,6Zm-26.37-11a3,3,0,0,1-2.46-1.28,28.45,28.45,0,0,1-5.13-15.7,3,3,0,0,1,2.93-3.07h.07a3,3,0,0,1,3,2.93,22.44,22.44,0,0,0,4.05,12.4,3,3,0,0,1-.74,4.18A2.94,2.94,0,0,1,482.35,521.37Zm-4.6-29.05a3,3,0,0,1-3-3v-15a3,3,0,1,1,6,0v15A3,3,0,0,1,477.75,492.32Zm236.57-18.4a3,3,0,0,1-3-3v-15a3,3,0,1,1,6,0v15A3,3,0,0,1,714.32,473.92Zm-236.57-11.6a3,3,0,0,1-3-3v-15a3,3,0,1,1,6,0v15A3,3,0,0,1,477.75,462.32Zm236.57-18.4a3,3,0,0,1-3-3v-15a3,3,0,1,1,6,0v15A3,3,0,0,1,714.32,443.92Zm-236.57-11.6a3,3,0,0,1-3-3v-15a3,3,0,1,1,6,0v15A3,3,0,0,1,477.75,432.32Zm236.57-18.4a3,3,0,0,1-3-3v-15a3,3,0,1,1,6,0v15A3,3,0,0,1,714.32,413.92Zm-236.57-11.6a3,3,0,0,1-3-3v-15a3,3,0,1,1,6,0v15A3,3,0,0,1,477.75,402.32Zm236.57-18.4a3,3,0,0,1-3-3v-15a3,3,0,1,1,6,0v15A3,3,0,0,1,714.32,383.92Zm-236.57-11.6a3,3,0,0,1-3-3v-15a3,3,0,1,1,6,0v15A3,3,0,0,1,477.75,372.32Zm236.57-18.4a3,3,0,0,1-3-3v-15a3,3,0,1,1,6,0v15A3,3,0,0,1,714.32,353.92Zm-236.57-11.6a3,3,0,0,1-3-3v-15a3,3,0,1,1,6,0v15A3,3,0,0,1,477.75,342.32Zm236.57-18.4a3,3,0,0,1-3-3v-15a3,3,0,1,1,6,0v15A3,3,0,0,1,714.32,323.92Zm-236.57-11.6a3,3,0,0,1-3-3v-15a3,3,0,1,1,6,0v15A3,3,0,0,1,477.75,312.32Zm236.57-18.4a3,3,0,0,1-3-3v-15a3,3,0,1,1,6,0v15A3,3,0,0,1,714.32,293.92Zm-236.57-11.6a3,3,0,0,1-3-3v-15a3,3,0,1,1,6,0v15A3,3,0,0,1,477.75,282.32Zm236.57-18.4a3,3,0,0,1-3-3v-15a3,3,0,1,1,6,0v15A3,3,0,0,1,714.32,263.92Zm-236.57-11.6a3,3,0,0,1-3-3v-15a3,3,0,1,1,6,0v15A3,3,0,0,1,477.75,252.32Zm236.57-18.4a3,3,0,0,1-3-3v-.39a22.55,22.55,0,0,0-3.57-12.2,3,3,0,1,1,5-3.25,28.54,28.54,0,0,1,4.53,15.45v.39A3,3,0,0,1,714.32,233.92ZM480.16,222.68a2.87,2.87,0,0,1-1.27-.29,3,3,0,0,1-1.44-4,28.55,28.55,0,0,1,11-12.29,3,3,0,1,1,3.12,5.12,22.62,22.62,0,0,0-8.71,9.72A3,3,0,0,1,480.16,222.68ZM699,210.09a3.09,3.09,0,0,1-1.21-.25,22.34,22.34,0,0,0-9.1-1.91h-4.38a3,3,0,0,1,0-6h4.38a28.27,28.27,0,0,1,11.52,2.42,3,3,0,0,1-1.21,5.74Zm-29.69-2.16h-15a3,3,0,0,1,0-6h15a3,3,0,0,1,0,6Zm-30,0h-15a3,3,0,0,1,0-6h15a3,3,0,0,1,0,6Zm-30,0h-15a3,3,0,0,1,0-6h15a3,3,0,0,1,0,6Zm-30,0h-15a3,3,0,0,1,0-6h15a3,3,0,0,1,0,6Zm-30,0h-15a3,3,0,0,1,0-6h15a3,3,0,0,1,0,6Zm-30,0h-15a3,3,0,0,1,0-6h15a3,3,0,0,1,0,6Z"/><line id="line" class="cls-2" x1="1317.45" y1="87.82" x2="436.77" y2="87.82"/><rect id="banner" class="cls-2" x="473" y="122.95" width="800" height="39.82" rx="10.83"/></g><g id="picture"><path class="cls-3" d="M557.29,482.29,669.38,645,785.29,479.06a3,3,0,0,1,.33-.38,25.54,25.54,0,0,0-12.44-3.22H571.62a25.48,25.48,0,0,0-16,5.64A2.94,2.94,0,0,1,557.29,482.29Z"/><path class="cls-3" d="M625.08,635.33v73l40.64-58.16L552.35,485.69a2.94,2.94,0,0,1-.43-1A25.46,25.46,0,0,0,546,501.06V621.38h65.11A14,14,0,0,1,625.08,635.33Z"/><path class="cls-3" d="M798.78,501.06a25.56,25.56,0,0,0-8.36-18.93c-.07.13-.13.25-.21.37L673,650.22l50.43,73.19,75.33-.1Z"/><path class="cls-3" d="M716.17,723.42l-46.82-67.95-44.27,63.36V809.5a13.93,13.93,0,0,1-7.93,12.57h39.08l-.14-98.57Z"/></g><g id="web_layout" data-name="web layout"><rect class="cls-2" x="299.36" y="621.38" width="325.72" height="202.08" rx="13.96"/><line class="cls-2" x1="299.93" y1="651.29" x2="625.36" y2="651.29"/><rect class="cls-2" x="381.65" y="687.18" width="161.13" height="106.36" rx="6.67"/><rect class="cls-3" x="424.89" y="752.55" width="74.66" height="16.85" rx="6.34"/><circle class="cls-1" cx="324.75" cy="636.66" r="3.99"/><circle class="cls-1" cx="346.69" cy="636.66" r="3.99"/><circle class="cls-1" cx="368.62" cy="636.66" r="3.99"/><line class="cls-2" x1="428.32" y1="716.43" x2="496.12" y2="716.43"/><line class="cls-2" x1="442.94" y1="732.39" x2="481.5" y2="732.39"/></g><g id="bin"><g id="trash"><path id="shanpe" class="cls-3" d="M1306.24,525.21s-16.4-91.26-4.56-87.58l122.55,38a22.46,22.46,0,0,1,14.8,28.1l-7.3,22.93Z"/><g id="layout"><path class="cls-1" d="M1272.76,522.76l10-12.87L1257.71,513l1.25,10a3,3,0,0,1-.51,2.06l13.75.08A3,3,0,0,1,1272.76,522.76Z"/><polygon class="cls-1" points="1194.65 489.05 1282.73 478.05 1279.42 451.5 1194.65 489.05"/><path class="cls-1" d="M1251.38,510.79a3,3,0,0,1,.61-2.21,3,3,0,0,1,2-1.14l35.15-4.39a3,3,0,0,1,3.35,2.61l2.1,16.86a3,3,0,0,1-1.25,2.81l18.78.11L1299,420.58,1148.29,439.4l10.63,85.09,53.83.33a3,3,0,0,1,2.6-3.24l20-2.5a3,3,0,0,1,1,5.89l17.11.11a3,3,0,0,1-.48-1.28Zm-17,.49-56.59,7.07-.38,0a3,3,0,0,1-.37-6l56.6-7.06a3,3,0,0,1,.74,5.95Zm-59.19-13.76a2.06,2.06,0,0,1-.35,0h0a3.57,3.57,0,0,1-.47,0l-.13,0-.32-.08-.16-.06-.27-.12-.15-.08-.26-.17-.09-.06,0,0a2.85,2.85,0,0,1-.69-.81.54.54,0,0,1-.07-.13l-.1-.18a.57.57,0,0,1,0-.14,2.31,2.31,0,0,1-.1-.28c0-.1,0-.2-.06-.3a.53.53,0,0,1,0-.12l-4.19-33.53a3,3,0,0,1,2.61-3.35l111.25-13.89h.14a2,2,0,0,1,.34,0l.27,0,.3,0,.27.08.27.1.26.13.24.16.23.17.21.2c.07.07.13.15.19.22l.17.23.15.28a.91.91,0,0,1,.08.13s0,.08,0,.12a1.9,1.9,0,0,1,.09.29,1.83,1.83,0,0,1,.07.32.45.45,0,0,1,0,.11l4.19,33.53a3,3,0,0,1-.61,2.22,3,3,0,0,1-2,1.13Z"/><polygon class="cls-1" points="1173.99 463.62 1177.3 490.17 1262.07 452.63 1173.99 463.62"/><path class="cls-1" d="M1288.64,523.26l-1.2-9.58-9,11.55,11.41.07A3,3,0,0,1,1288.64,523.26Z"/><path class="cls-1" d="M1273.28,527a3,3,0,0,0,4.21-.52l1-1.22-6.24,0A3,3,0,0,0,1273.28,527Z"/><path class="cls-1" d="M1256,526.43l.38,0a3,3,0,0,0,2.09-1.29l-5,0A3,3,0,0,0,1256,526.43Z"/><path class="cls-1" d="M1289.85,525.3a3,3,0,0,0,2.14.57,3.1,3.1,0,0,0,1.35-.54Z"/><path class="cls-1" d="M1212.75,524.93a3,3,0,0,0,3,2.63,2.43,2.43,0,0,0,.38,0l20-2.5.27-.06-23.63-.15A.41.41,0,0,0,1212.75,524.93Z"/></g></g><g id="bin-2" data-name="bin"><polygon id="shape-4" data-name="shape" class="cls-2" points="1490 526.55 1114.3 524.21 1177.51 825 1427.97 826.17 1490 526.55"/><path id="pattern" class="cls-1" d="M1370.6,734.87l-34.39-41.38,37.34-37.22,12.7,15.27,1.55-7.51-10-12,15.71-15.66,2.21-10.68L1374,647.38,1339.57,606l38.11-38,24,28.89,1.55-7.51L1382,563.76l33.53-33.42.79-3.79-5.45,0-32.72,32.62L1350.59,526l-7.85-.06,31.09,37.4-38.11,38L1301.33,560l34.18-34.06-8.44-.07-29.59,29.5-24.87-29.92-7.85-.06,28.45,34.23-37.34,37.22-34.39-41.37,30.27-30.18-8.43-.07-25.69,25.61-21.6-26-7.85-.06,25.18,30.3-38.11,38-33.86-40.74,27.77-27.68-8.43-.07-23.19,23.12-19.49-23.45-3.75,0,1.39,6.57,17.58,21.16-10.86,10.83,1.47,7,13.24-13.2L1171,597.32l-34.17,34,1.47,7L1174.84,602l34.39,41.38-38.11,38L1139.26,643l2.64,12.56,25,30-15.42,15.37,1.47,7,17.8-17.74,34.39,41.38-38.11,38-1.52-1.83,2.64,12.57L1201,819.83l-5.31,5.29,8.44.06.72-.72.6.73,7.85,0-4.18-5,38.11-38,34.39,41.38-2.08,2.08,11.67.07-1.47-1.77,38.1-38,27.82,33.46,1.55-7.52-25.1-30.2,38.11-38,.89,1.06,2.72-13.13Zm-.9-83.24-37.34,37.23L1298,647.48l37.34-37.22Zm-41.61,41.48-38.11,38-34.39-41.38,38.11-38Zm-31-128.87,34.4,41.38-37.35,37.23-34.39-41.38Zm-7.21,82.86-38.11,38-34.39-41.38,38.1-38ZM1179.1,597.7l38.11-38,34.39,41.38-38.1,38ZM1175,686l38.11-38,34.39,41.38-38.1,38Zm30.27,129.63-34.4-41.38,38.11-38,34.39,41.38Zm8-83.62,38.1-38,34.4,41.38-38.11,38Zm72.63,87.39L1251.46,778l38.11-38L1324,781.36Zm42.38-42.24-34.39-41.38,38.1-38,34.4,41.38Z"/><line id="line-2" data-name="line" class="cls-2" x1="1355" y1="822.91" x2="1416.16" y2="529.87"/></g></g><g id="text"><rect id="shape-5" data-name="shape" class="cls-2" x="656.16" y="723.34" width="240.77" height="99.88" transform="translate(-1.06 1.06) rotate(-0.08)"/><g id="lines"><line class="cls-4" x1="686.96" y1="799.15" x2="752.77" y2="799.06"/><line class="cls-4" x1="686.94" y1="781.9" x2="862.03" y2="781.66"/><line class="cls-4" x1="686.91" y1="765.37" x2="862.01" y2="765.13"/><line class="cls-4" x1="686.89" y1="748.85" x2="861.99" y2="748.61"/></g></g><g id="detergent"><path class="cls-3" d="M411.39,410c-14-12.89-20.38-37.54-23.32-58.19L420,340.48a7.43,7.43,0,0,0,4.6-7.14V308.49a7.44,7.44,0,0,0-4.6-7.15l-32.34-10.91v3h.1v55.47H341.27c3.21,14.31,9.69,31.69,22.69,46.61,27.83,32,44.33,39.18,53.61,42.27S438.19,434.7,411.39,410Z"/><path class="cls-2" d="M256,293.44a21.7,21.7,0,0,0-15.93,7L185.77,359A10.67,10.67,0,0,0,193.6,377h31.25s1.06,11.68,2.29,21.36c.37,0,83.06.26,84.66.81l15.13-50.22h60.83V293.44Z"/><path class="cls-1" d="M314.11,438.55a5.09,5.09,0,0,1,2.65,1,15.68,15.68,0,0,0,5.69-12.12V410.53a15.75,15.75,0,0,0-15.75-15.75H228.25a15.75,15.75,0,0,0-15.75,15.75v16.93a15.71,15.71,0,0,0,6.55,12.77c.08-.18.17-.37.26-.55C219.87,439.81,308.44,438.55,314.11,438.55Z"/><path id="bottle" class="cls-2" d="M299.36,809.5V635.33a14,14,0,0,1,14-14h49.84c-6-22-17.22-43.81-37.69-55.1-18.17-13.77-11.36-31.3-5.68-35.06s13.62-21.29-2.27-37.57c0,0-9.08-12.52,3.4-23.79s-1.13-31.31-6.81-31.31-94.24,1.26-94.8,1.13a759.33,759.33,0,0,0-48.26,134.11c-16.26,64.2-16.39,174-15.47,224.08.26,14.66,11.12,26.37,24.41,26.37H345.33a22.33,22.33,0,0,0,5.86-.78H313.32A14,14,0,0,1,299.36,809.5Z"/></g><line id="line-3" data-name="line" class="cls-2" x1="1602" y1="824.91" x2="3" y2="824.91"/></g></g></svg>