<svg xmlns="http://www.w3.org/2000/svg" viewBox="0 0 1671.54 745.16"><defs><style>.cls-1{fill:#111;}.cls-2{fill:#fff;}.cls-3{fill:none;stroke:#111;stroke-linecap:round;stroke-linejoin:round;stroke-width:6px;}.cls-4{fill:#6d6d6d;}</style></defs><g id="Layer_2" data-name="Layer 2"><g id="outline_III" data-name="outline III"><g id="barricade"><g id="pillars"><path id="shape" class="cls-1" d="M213.75,226h13.05a11.49,11.49,0,0,1,11.49,11.49v504a0,0,0,0,1,0,0h-36a0,0,0,0,1,0,0v-504A11.49,11.49,0,0,1,213.75,226Z"/><polyline id="shape-2" data-name="shape" class="cls-1" points="892.95 654.18 892.95 741.5 856.91 741.5 856.91 654.47"/></g><g id="plank_II" data-name="plank II"><rect id="shape-3" data-name="shape" class="cls-1" x="139.19" y="280.79" width="236.01" height="87.85"/><g id="white_stripes" data-name="white stripes"><polygon class="cls-2" points="261.13 280.79 197.11 280.79 139.19 365.99 139.19 368.64 201.41 368.64 261.13 280.79"/><polygon class="cls-2" points="333.56 368.64 374.02 309.12 373.83 280.79 329.25 280.79 269.54 368.64 333.56 368.64"/></g></g><g id="plank"><rect id="shape-4" data-name="shape" class="cls-1" x="139.19" y="436.41" width="235.72" height="87.85"/><g id="white_stripes-2" data-name="white stripes"><polygon class="cls-2" points="261.13 436.41 197.11 436.41 139.19 521.61 139.19 524.25 201.41 524.25 261.13 436.41"/><polygon class="cls-2" points="333.56 524.25 374.45 464.11 373.89 436.41 329.25 436.41 269.54 524.25 333.56 524.25"/></g></g></g><g id="screen"><path id="shape-5" data-name="shape" class="cls-3" d="M1455.46,3h-75.57V3h-955A50.82,50.82,0,0,0,374.1,53.86V603a50.83,50.83,0,0,0,50.83,50.83H1455.46a47.24,47.24,0,0,0,47.24-47.24V50.23A47.24,47.24,0,0,0,1455.46,3Z"/><path id="screen_line" data-name="screen line" class="cls-1" d="M1457.55,602.94V50.75c0-28.22-22.75-47.61-50.82-47.61h44.89c28.07,0,50.82,19.39,50.82,47.61V602.94l-3,24.64Z"/><g id="dots"><circle class="cls-1" cx="436.8" cy="35.88" r="14.54"/><circle class="cls-1" cx="493.33" cy="35.88" r="14.54"/><circle class="cls-1" cx="549.86" cy="35.88" r="14.54"/></g><g id="layout"><line id="vertial_line" data-name="vertial line" class="cls-3" x1="1115.16" y1="68.95" x2="1114.77" y2="655.02"/><line id="horizontal_line" data-name="horizontal line" class="cls-3" x1="1457.55" y1="69.35" x2="374.29" y2="69.35"/><g id="code_lines" data-name="code lines"><rect class="cls-4" x="1231.74" y="207.74" width="11.22" height="15.37" rx="4.45"/><rect class="cls-1" x="1150.3" y="207.74" width="77.13" height="15.37" rx="5"/><rect class="cls-1" x="1150.3" y="279.11" width="84.11" height="15.37" rx="5"/><rect class="cls-4" x="1171.56" y="255.35" width="130.45" height="15.37" rx="5"/><rect class="cls-4" x="1150.52" y="172.16" width="130.45" height="15.37" rx="5"/><rect class="cls-4" x="1150.52" y="355.2" width="130.45" height="15.37" rx="5"/><rect class="cls-4" x="1309.31" y="255.35" width="70.46" height="15.37" rx="5"/><rect class="cls-1" x="1392.41" y="231.59" width="11.22" height="15.37" rx="4.45"/><rect class="cls-1" x="1150.3" y="231.55" width="134.9" height="15.37" rx="5"/><rect class="cls-1" x="1247.9" y="207.74" width="77.13" height="15.37" rx="5"/><rect class="cls-4" x="1291.22" y="231.5" width="95.15" height="15.46" rx="5"/><rect class="cls-1" x="1150.3" y="415.58" width="77.13" height="15.37" rx="5"/><rect class="cls-1" x="1150.3" y="486.95" width="84.11" height="15.37" rx="5"/><rect class="cls-4" x="1171.56" y="463.19" width="130.45" height="15.37" rx="5"/><rect class="cls-4" x="1309.31" y="463.19" width="70.46" height="15.37" rx="5"/><rect class="cls-1" x="1392.41" y="439.43" width="11.22" height="15.37" rx="4.45"/><rect class="cls-1" x="1412.02" y="415.58" width="11.22" height="15.37" rx="4.45"/><rect class="cls-1" x="1150.3" y="439.39" width="134.9" height="15.37" rx="5"/><rect class="cls-4" x="1231.74" y="415.58" width="93.29" height="15.37" rx="5"/><rect class="cls-4" x="1330.97" y="415.58" width="77.13" height="15.37" rx="5"/><rect class="cls-4" x="1231.74" y="392.55" width="11.22" height="15.37" rx="4.45"/><rect class="cls-1" x="1150.3" y="392.55" width="77.13" height="15.37" rx="5"/><rect class="cls-1" x="1247.9" y="392.55" width="77.13" height="15.37" rx="5"/><rect class="cls-4" x="1291.22" y="439.34" width="95.15" height="15.46" rx="5"/></g><g id="text_and_picture" data-name="text and picture"><rect class="cls-3" x="833.88" y="460.18" width="141.86" height="144.73" rx="12.43" transform="translate(1809.62 1065.09) rotate(-180)"/><line class="cls-3" x1="801.08" y1="480.06" x2="709.44" y2="480.06"/><line class="cls-3" x1="801.69" y1="520.35" x2="534.16" y2="520.35"/><line class="cls-3" x1="801.69" y1="544.33" x2="534.16" y2="544.33"/><line class="cls-3" x1="801.69" y1="568.32" x2="534.16" y2="568.32"/><line class="cls-3" x1="801.69" y1="592.91" x2="534.16" y2="592.91"/><line class="cls-3" x1="837.28" y1="599.96" x2="972.6" y2="463.34"/></g><g id="text_and_picture_II" data-name="text and picture II"><rect class="cls-3" x="534.16" y="270.41" width="141.86" height="144.73" rx="12.43"/><line class="cls-3" x1="708.83" y1="290.3" x2="800.46" y2="290.3"/><line class="cls-3" x1="708.21" y1="330.58" x2="975.74" y2="330.58"/><line class="cls-3" x1="708.21" y1="354.56" x2="975.74" y2="354.56"/><line class="cls-3" x1="708.21" y1="378.55" x2="975.74" y2="378.55"/><line class="cls-3" x1="708.21" y1="402.53" x2="975.74" y2="402.53"/><line class="cls-3" x1="537.13" y1="410.42" x2="672.46" y2="273.8"/></g><rect id="banner" class="cls-3" x="408.93" y="115.97" width="663.81" height="123.62" rx="11.93"/></g></g><g id="helmet"><path id="shape-6" data-name="shape" class="cls-4" d="M1173.47,692l14.11,1.29c.3-1.11.61-2.22.93-3.32L1189,601a11.26,11.26,0,0,1,11.32-11.2l60.21.34a181.59,181.59,0,0,1,104.83-32.66c100.18.57,182.24,83.3,182,183.49l-375.85-.27a21,21,0,0,1-21-21.13l0-6.82A21,21,0,0,1,1173.47,692Z"/><path id="line" class="cls-3" d="M1529,679.27s-30.75-4.38-39.7,30.55c-.86,3.38-2.64,18.61-2.64,18.61s-189.16,4.87-293.94-34.68c0,0-2.87-29.55,35.22-71.08"/></g><g id="bollard"><path id="shape-7" data-name="shape" class="cls-4" d="M618.59,705.07H591.82L495.76,452.16c-5.3-14-21.58-13.72-26.61.38L379.08,705.07H352.91c-5.45,0-9.87,5.4-9.87,12.06v16c0,6.66,4.42,12.06,9.87,12.06H618.59c5.45,0,9.86-5.4,9.86-12.06v-16C628.45,710.47,624,705.07,618.59,705.07Z"/><line id="line-2" data-name="line" class="cls-3" x1="382.97" y1="705.07" x2="587.31" y2="705.07"/><g id="white_stripes-3" data-name="white stripes"><polygon class="cls-2" points="578.05 667.92 392.31 667.92 407.26 625.6 561.96 625.6 578.05 667.92"/><polygon class="cls-2" points="424.9 576.6 543.02 576.6 526.95 534.27 440 534.27 424.9 576.6"/></g></g><g id="bollard-2" data-name="bollard"><path id="shape-8" data-name="shape" class="cls-4" d="M806.64,722.89H791.77L738.42,582.42c-2.94-7.74-12-7.61-14.78.21l-50,140.26H659.08c-3,0-5.48,3-5.48,6.71v8.86c0,3.7,2.45,6.7,5.48,6.7H806.64c3,0,5.48-3,5.48-6.7V729.6C812.12,725.89,809.67,722.89,806.64,722.89Z"/><line id="line-3" data-name="line" class="cls-3" x1="675.77" y1="722.89" x2="789.27" y2="722.89"/><g id="white_stripes-4" data-name="white stripes"><polygon class="cls-2" points="784.13 702.26 680.96 702.26 689.27 678.76 775.19 678.76 784.13 702.26"/><polygon class="cls-2" points="699.07 651.54 764.67 651.54 755.74 628.03 707.45 628.03 699.07 651.54"/></g></g><line id="line-4" data-name="line" class="cls-3" x1="3" y1="741.97" x2="1668.54" y2="741.97"/></g></g></svg>