<svg xmlns="http://www.w3.org/2000/svg" viewBox="0 0 1685.56 592.41"><defs><style>.cls-1,.cls-3{fill:none;}.cls-1,.cls-3,.cls-4{stroke:#111;stroke-linecap:round;stroke-linejoin:round;}.cls-1{stroke-width:6px;}.cls-2{fill:#111;}.cls-3,.cls-4{stroke-width:3px;}.cls-4{fill:#fff;}</style></defs><g id="Layer_2" data-name="Layer 2"><g id="outline"><g id="workspace"><g id="computer_monitor" data-name="computer monitor"><g id="monitor"><circle class="cls-1" cx="533.04" cy="508.58" r="30.13"/><line class="cls-1" x1="599.65" y1="442.03" x2="632.98" y2="583.94"/><path class="cls-1" d="M166.61,421.69V431a10.57,10.57,0,0,0,10.53,10.54H451.72L419.49,559.79"/><path class="cls-1" d="M884.86,45.61V13.53A10.57,10.57,0,0,0,874.32,3H177.14a10.56,10.56,0,0,0-10.53,10.53V284.46"/><line class="cls-1" x1="884.86" y1="358.99" x2="884.86" y2="325.24"/><polyline class="cls-1" points="661.11 588.08 622.57 441.51 745.66 441.51"/><line class="cls-1" x1="854.73" y1="325.24" x2="854.73" y2="358.99"/><line class="cls-1" x1="854.73" y1="6.46" x2="854.73" y2="45.61"/></g><g id="screen"><path class="cls-1" d="M201,284.46V41.06a10.53,10.53,0,0,1,10.53-10.53H812.79a10.53,10.53,0,0,1,10.54,10.53v4.55"/><line class="cls-1" x1="734.38" y1="404.32" x2="235.59" y2="404.32"/><line class="cls-1" x1="823.33" y1="325.24" x2="823.33" y2="358.99"/><line class="cls-1" x1="258.46" y1="56.2" x2="258.46" y2="404.32"/><line class="cls-1" x1="200.98" y1="56.2" x2="687.67" y2="56.2"/><g id="toolbar"><rect class="cls-2" x="208.54" y="77.59" width="16.96" height="16.96"/><rect class="cls-2" x="233.37" y="77.59" width="16.96" height="16.96"/><rect class="cls-2" x="208.54" y="103.64" width="16.96" height="16.96"/><rect class="cls-2" x="233.37" y="103.64" width="16.96" height="16.96"/><rect class="cls-2" x="208.54" y="129.68" width="16.96" height="16.96"/><rect class="cls-2" x="233.37" y="129.68" width="16.96" height="16.96"/><rect class="cls-2" x="208.54" y="155.72" width="16.96" height="16.96"/><rect class="cls-2" x="233.37" y="155.72" width="16.96" height="16.96"/><rect class="cls-2" x="208.54" y="181.76" width="16.96" height="16.96"/><rect class="cls-2" x="233.37" y="181.76" width="16.96" height="16.96"/><rect class="cls-2" x="208.54" y="207.81" width="16.96" height="16.96"/><rect class="cls-2" x="233.37" y="207.81" width="16.96" height="16.96"/><rect class="cls-2" x="208.54" y="233.85" width="16.96" height="16.96"/><rect class="cls-2" x="233.37" y="233.85" width="16.96" height="16.96"/><rect class="cls-2" x="208.54" y="259.89" width="16.96" height="16.96"/><rect class="cls-2" x="233.37" y="259.89" width="16.96" height="16.96"/></g><g id="button"><path class="cls-1" d="M364.55,338.24,325.67,338a10,10,0,0,1-10-10.07l0-5.09a10,10,0,0,1,10.08-10l36.64.2"/><circle class="cls-1" cx="379.02" cy="325.24" r="19.45"/></g><g id="layout_II" data-name="layout II"><polyline class="cls-1" points="426.53 276.09 357.1 276.09 357.1 125.96 425.78 125.96"/><path class="cls-1" d="M426,249a31,31,0,1,1,.1-57.83"/><line class="cls-1" x1="383.67" y1="175.72" x2="426.53" y2="175.72"/><line class="cls-1" x1="383.67" y1="166.86" x2="426.53" y2="166.86"/><line class="cls-1" x1="383.67" y1="157.82" x2="426.53" y2="157.82"/></g><g id="layout_I" data-name="layout I"><rect class="cls-1" x="426.53" y="73.96" width="230.83" height="300.72"/><rect class="cls-1" x="450.51" y="102.08" width="115.51" height="91.77"/><rect class="cls-1" x="450.51" y="211.22" width="183.21" height="145.57"/><line class="cls-1" x1="450.51" y1="193.85" x2="566.02" y2="102.08"/><line class="cls-1" x1="450.51" y1="102.08" x2="566.02" y2="193.85"/><line class="cls-1" x1="633.72" y1="211.22" x2="450.51" y2="356.78"/><line class="cls-1" x1="450.51" y1="211.22" x2="633.72" y2="356.78"/><line class="cls-1" x1="582.19" y1="117.73" x2="633.72" y2="117.73"/><line class="cls-1" x1="582.19" y1="129.57" x2="633.72" y2="129.57"/><line class="cls-1" x1="582.19" y1="141.4" x2="633.72" y2="141.4"/><line class="cls-1" x1="582.19" y1="154.25" x2="633.72" y2="154.25"/><rect class="cls-1" x="582.19" y="165.48" width="51.53" height="11.75"/></g><line class="cls-1" x1="805.36" y1="325.24" x2="805.36" y2="360.29"/><line class="cls-1" x1="622.57" y1="441.51" x2="451.72" y2="441.51"/></g><rect class="cls-1" x="687.67" y="45.61" width="279.63" height="279.63" rx="8.62"/><line class="cls-1" x1="967.3" y1="104.21" x2="687.67" y2="104.21"/><line class="cls-1" x1="967.3" y1="159.72" x2="687.67" y2="159.72"/><line class="cls-1" x1="967.3" y1="215.24" x2="687.67" y2="215.24"/><line class="cls-1" x1="967.3" y1="270.75" x2="687.67" y2="270.75"/><line class="cls-1" x1="775.61" y1="104.21" x2="775.61" y2="325.24"/><line class="cls-1" x1="819.7" y1="104.21" x2="819.7" y2="325.24"/><ellipse class="cls-1" cx="732.01" cy="132.57" rx="25.23" ry="10.84"/><ellipse class="cls-2" cx="732.12" cy="132.57" rx="4.89" ry="10.69"/><rect class="cls-2" x="790.37" y="116.82" width="14.97" height="31.5"/><line class="cls-1" x1="846.66" y1="132.57" x2="900.71" y2="132.57"/><circle class="cls-1" cx="935.24" cy="132.57" r="9.35"/><ellipse class="cls-1" cx="732.01" cy="188.01" rx="25.23" ry="10.84"/><ellipse class="cls-2" cx="732.12" cy="188.01" rx="4.89" ry="10.69"/><rect class="cls-2" x="790.37" y="172.26" width="14.97" height="31.5"/><line class="cls-1" x1="846.66" y1="188.01" x2="900.71" y2="188.01"/><circle class="cls-1" cx="935.24" cy="188.01" r="9.35"/><ellipse class="cls-1" cx="732.01" cy="240.86" rx="25.23" ry="10.84"/><ellipse class="cls-2" cx="732.12" cy="240.86" rx="4.89" ry="10.69"/><rect class="cls-2" x="790.37" y="225.11" width="14.97" height="31.5"/><line class="cls-1" x1="846.66" y1="240.86" x2="900.71" y2="240.86"/><circle class="cls-1" cx="935.24" cy="240.86" r="9.35"/><ellipse class="cls-1" cx="732.01" cy="296.3" rx="25.23" ry="10.84"/><ellipse class="cls-2" cx="732.12" cy="296.3" rx="4.89" ry="10.69"/><rect class="cls-2" x="790.37" y="280.55" width="14.97" height="31.5"/><line class="cls-1" x1="846.66" y1="296.3" x2="900.71" y2="296.3"/><circle class="cls-1" cx="935.24" cy="296.3" r="9.35"/><line class="cls-1" x1="928.53" y1="64.81" x2="944.95" y2="82.02"/><line class="cls-1" x1="944.95" y1="64.81" x2="928.53" y2="82.02"/><g id="shape_presets" data-name="shape presets"><rect class="cls-1" x="97.99" y="284.46" width="137.23" height="137.23" rx="8.62"/><polygon class="cls-2" points="173.24 343.83 173.24 357.71 192.52 357.71 192.52 381.72 168.51 381.72 168.51 361.8 154.63 361.8 154.63 395.6 206.39 395.6 206.39 343.83 173.24 343.83"/><rect class="cls-1" x="121.83" y="310.4" width="51.4" height="51.4"/><line class="cls-1" x1="172.04" y1="312.36" x2="124.5" y2="360.66"/><path class="cls-1" d="M181.85,314s16.89-4,16.89,17.22"/><polyline class="cls-1" points="193.81 326.69 198.65 331.54 203.68 326.69"/><polyline class="cls-1" points="186.21 309.07 181.36 313.91 186.21 318.93"/></g></g><path id="succulent" class="cls-1" d="M1501,589.41a15.32,15.32,0,0,0,15.32-15.32V540.28a9.94,9.94,0,0,0-9.94-9.94h-48.14c1.74-2.75,3.48-5.83,5.12-9a21.77,21.77,0,0,0,7.38,5.06c6.5,2.43,10-.39,11.79-5.24s-4.29-9.45-7.24-10.69c-1.62-.68-4.27-.29-7.12.56l.73-1.77c.8-2,1.7-4.51,2.62-7.35,5.3,3.19,12.33,2.53,14.21-1.76,2.48-5.69-1-13.38-6.63-12.82a13.12,13.12,0,0,0-3.79,1.06c4.54-19,6.3-40.32-7.93-32.84-4.16,2.19-8,6.6-11.34,12.31-4.73-10.54-13.12-21.83-17.78-18.65-8.46,5.77-3.12,22.27,11.67,31.69a140.07,140.07,0,0,0-7.53,30c-3.5-3.3-7.22-4.23-9.75-2.13-3,2.51-2.2,11.29,3.75,9.7,2.45-.66,4.16-1.21,5.34-1.63a73.84,73.84,0,0,0,0,13.47H1419.9a75.66,75.66,0,0,0-3.19-14.43c-1-2.83-2.55-7.22-4.62-12,5.49-1.14,11.62-6.48,12.78-10.42,1.64-5.55-2.14-9-8.45-8.07-3.24.45-7.45,3.75-10,7.51-4.91-7.87-11.49-14.31-20-13.71-8,1-2.38,17.38,5.27,31.58-5.07-1.8-10.57-1.51-13.48.19-4.54,2.65-5,14.76,11.87,12.87a27.31,27.31,0,0,0,8.33-1.93,45.28,45.28,0,0,0,6.92,8.41h-40"/><rect id="keypad" class="cls-1" x="215.17" y="559.79" width="372.74" height="28.9" rx="10.53"/><rect id="mouse" class="cls-1" x="107.71" y="565.92" width="80.42" height="22.79" rx="6.85"/><g id="graphic_tablet" data-name="graphic tablet"><g id="tablet_pen" data-name="tablet pen"><path class="cls-1" d="M1317.71,229.59V197.74a6.85,6.85,0,0,1,6.85-6.85h1.11a6.85,6.85,0,0,1,6.85,6.85v31.41"/><path class="cls-1" d="M1311,469.7V234.38a4.43,4.43,0,0,1,4.43-4.43h19.42a4.43,4.43,0,0,1,4.43,4.43v236"/><polyline class="cls-1" points="1381.73 586.67 1347.93 470.34 1305.56 470.34 1295.51 510.74"/><path class="cls-1" d="M1320.1,470.34c0,11.45,1.8,24,12.79,24s12.57-12.35,12.57-24"/></g><g id="shape"><path class="cls-2" d="M851.23,525.34,864,525a4,4,0,0,0,3.35-1.57,4.63,4.63,0,0,0,.24-4.26c-1.27-3.55-5.31-6.49-8.87-6.49h-.14l-12.79.29a4,4,0,0,0-3.36,1.58,4.61,4.61,0,0,0-.24,4.25c1.27,3.56,5.3,6.5,8.87,6.5Z"/><path class="cls-2" d="M835.37,467.37H835c-3.36.08-6.07,1.38-7.64,3.67-1.72,2.5-1.95,5.88-.64,9.54,2.7,7.53,11,13.53,18.54,13.53h.32c3.36-.08,6.08-1.38,7.65-3.67,1.72-2.49,1.94-5.88.64-9.54C851.21,473.37,843,467.37,835.37,467.37Z"/><path class="cls-2" d="M861.82,496.8c2.92-4.25,3.32-10,1.12-16.1-4.44-12.41-18.07-22.3-30.57-22.3h-.54c-5.68.13-10.29,2.36-13,6.27-2.92,4.25-3.32,10-1.12,16.11,4.44,12.41,18.07,22.3,30.57,22.3h.54C854.52,503,859.13,500.72,861.82,496.8Zm-16.13.31h-.38c-8.75,0-18.28-6.89-21.37-15.52-1.62-4.52-1.26-9,1-12.25,2.14-3.11,5.7-4.87,10.05-5h.38c8.76,0,18.29,6.88,21.38,15.52,1.62,4.52,1.26,9-1,12.25S850,497,845.69,497.11Z"/><path class="cls-2" d="M823.65,448.72h.15l12.79-.29a4.05,4.05,0,0,0,3.36-1.58,4.69,4.69,0,0,0,.24-4.26c-1.28-3.55-5.31-6.49-8.87-6.49h-.15l-12.79.3A4,4,0,0,0,815,438a4.66,4.66,0,0,0-.24,4.26C816.05,445.78,820.09,448.72,823.65,448.72Z"/><path class="cls-2" d="M816.29,427.76l12.79-.29a4,4,0,0,0,3.36-1.58,4.66,4.66,0,0,0,.24-4.26c-1.27-3.55-5.31-6.49-8.87-6.49h-.15l-12.79.3a4,4,0,0,0-3.36,1.57,4.69,4.69,0,0,0-.24,4.26c1.27,3.55,5.31,6.49,8.88,6.49Z"/><path class="cls-2" d="M740.88,356a20.06,20.06,0,0,0-19,26.58l27.71,80.75-57.71,128.2,45.12.15,32.22-71.15,18.8,54.76a20,20,0,0,0,19,13.55h25.41L752.52,356Zm26.5,168.67-19.56-57.33,1.8-4,19.57,57.35Z"/><path class="cls-2" d="M1316.22,562.28l-66.14-192.72a20.07,20.07,0,0,0-19-13.55H755.7l79.9,232.84h461.64A20.06,20.06,0,0,0,1316.22,562.28Zm-511.77-140a7.66,7.66,0,0,1,.59-7,6.9,6.9,0,0,1,5.76-2.87l12.79-.3h.22c4.87,0,10,3.69,11.69,8.48a7.63,7.63,0,0,1-.59,7,6.92,6.92,0,0,1-5.76,2.88l-12.79.29h-.22C811.27,430.76,806.17,427.07,804.45,422.28Zm8.1,14a6.89,6.89,0,0,1,5.76-2.87l12.79-.3h.22c4.87,0,10,3.69,11.69,8.48a7.66,7.66,0,0,1-.59,7,6.94,6.94,0,0,1-5.76,2.88l-12.79.29h-.22c-4.87,0-10-3.68-11.7-8.48A7.66,7.66,0,0,1,812.55,436.27Zm2.35,45.52c-2.53-7.07-2-13.75,1.47-18.82,3.25-4.73,8.72-7.41,15.39-7.57h.59c13.69,0,28.58,10.77,33.41,24.28,2.54,7.07,2,13.76-1.47,18.82-3.25,4.73-8.71,7.42-15.39,7.58h-.58C834.63,506.08,819.74,495.3,814.9,481.79Zm24.49,38.07a7.66,7.66,0,0,1,.59-7,7,7,0,0,1,5.77-2.88l12.79-.29h.21c4.88,0,10,3.68,11.7,8.48a7.66,7.66,0,0,1-.59,7,6.92,6.92,0,0,1-5.77,2.87l-12.79.3h-.22C846.21,528.34,841.11,524.65,839.39,519.86Zm38,26.27A6.89,6.89,0,0,1,871.6,549l-12.79.3h-.22c-4.87,0-10-3.69-11.69-8.48a7.62,7.62,0,0,1,.59-7,6.94,6.94,0,0,1,5.76-2.88l12.79-.29h.22A13.18,13.18,0,0,1,878,539.16,7.63,7.63,0,0,1,877.36,546.13Zm425.21,29.25a15.56,15.56,0,0,1-12.48,6.59H919.45c-7.22,0-13.62-5.47-15.93-13.61l-61.61-178a23.1,23.1,0,0,1,3.42-19.94,15.54,15.54,0,0,1,12.48-6.6H1227c7.22,0,13.62,5.47,15.92,13.61L1306,555.51A23.11,23.11,0,0,1,1302.57,575.38Z"/><path class="cls-2" d="M866.26,533.68h-.15l-12.79.29a4.05,4.05,0,0,0-3.36,1.58,4.66,4.66,0,0,0-.24,4.26c1.28,3.55,5.31,6.49,8.87,6.49h.15l12.79-.3a4,4,0,0,0,3.36-1.57,4.66,4.66,0,0,0,.24-4.26C873.86,536.62,869.82,533.68,866.26,533.68Z"/></g><g id="screen-2" data-name="screen"><path class="cls-2" d="M1303.14,556.38l-63.1-178c-2-6.93-7.21-11.52-13.07-11.52H857.81a12.59,12.59,0,0,0-10.08,5.41,20,20,0,0,0-3,17.23l61.61,178c2,6.92,7.21,11.51,13.07,11.51h370.64a12.6,12.6,0,0,0,10.08-5.4A20,20,0,0,0,1303.14,556.38Zm-30.34,12.55H940.28a16.81,16.81,0,0,1-15.9-11.35L869,396.13a16.81,16.81,0,0,1,15.9-22.26H1217.4a16.8,16.8,0,0,1,15.89,11.35l55.41,161.45A16.81,16.81,0,0,1,1272.8,568.93Z"/><g id="screen_lines" data-name="screen lines"><line class="cls-3" x1="1211.39" y1="372.05" x2="1278.55" y2="571.07"/><line class="cls-3" x1="1217.4" y1="389.68" x2="868.49" y2="389.68"/><g id="toolbar-2" data-name="toolbar"><polyline class="cls-3" points="894.24 389.68 926.98 480.72 897.57 480.72"/><line class="cls-3" x1="917.1" y1="456.38" x2="889.45" y2="456.38"/><line class="cls-3" x1="909.62" y1="434.6" x2="882.4" y2="434.6"/><line class="cls-3" x1="902.14" y1="412.82" x2="874.91" y2="412.82"/></g></g><g id="layout_II-2" data-name="layout II"><polyline class="cls-3" points="1060.88 509.27 1007.77 509.27 977.21 418.82 1029.42 418.82"/><line class="cls-4" x1="992.59" y1="429.94" x2="1032.69" y2="429.94"/><line class="cls-4" x1="994.5" y1="435.43" x2="1034.6" y2="435.43"/><line class="cls-4" x1="996.41" y1="440.92" x2="1036.51" y2="440.92"/><line class="cls-4" x1="998.31" y1="446.41" x2="1038.42" y2="446.41"/><path class="cls-3" d="M1052.58,485.91c-2.66,4-7.47,6.53-13.53,6.46-10.87-.14-21.63-8.54-24-18.78s4.45-18.44,15.32-18.3a25,25,0,0,1,12.77,3.9"/></g><g id="layout_I-2" data-name="layout I"><polyline class="cls-3" points="1207.86 528.2 1218.63 559.17 1078.23 559.17 1022.31 398.37 1162.7 398.37 1183.59 458.43"/><polyline class="cls-3" points="1110.38 462.57 1057.95 462.57 1040.26 411.7 1118.88 411.7 1135.26 458.77"/><line class="cls-4" x1="1057.95" y1="462.57" x2="1118.88" y2="411.7"/><line class="cls-4" x1="1040.26" y1="411.7" x2="1129.02" y2="458.58"/><polyline class="cls-3" points="1193.8 528.34 1200.16 546.64 1087.19 546.64 1061.78 473.56 1111.78 473.56"/><line class="cls-4" x1="1087.19" y1="546.64" x2="1124.29" y2="515.67"/><line class="cls-4" x1="1061.78" y1="473.56" x2="1121.67" y2="505.19"/><line class="cls-4" x1="1127.88" y1="419.07" x2="1155.79" y2="419.07"/><line class="cls-4" x1="1130.04" y1="425.27" x2="1157.95" y2="425.27"/><line class="cls-4" x1="1132.2" y1="431.47" x2="1160.11" y2="431.47"/><line class="cls-4" x1="1134.35" y1="437.68" x2="1162.27" y2="437.68"/><polygon class="cls-3" points="1165.8 447.83 1137.89 447.83 1136.27 443.18 1164.18 443.18 1165.8 447.83"/></g><g id="panel"><path class="cls-3" d="M1250,517.19l-16.61-52.81a7.87,7.87,0,0,0-7.61-5.61l-109.06.29c-5.7,0-7.76,5.32-6.15,10.72l16.61,52.81a7.87,7.87,0,0,0,7.61,5.61h106.86A8.71,8.71,0,0,0,1250,517.19Z"/><line class="cls-3" x1="1112.01" y1="474.27" x2="1235.43" y2="474.27"/><path class="cls-3" d="M1151.6,489.36l-2.45-7.82a1.18,1.18,0,0,0-1.13-.84h-15.83a1.29,1.29,0,0,0-1.24,1.63l2.46,7.83a1.17,1.17,0,0,0,1.13.83h15.83A1.29,1.29,0,0,0,1151.6,489.36Z"/><path class="cls-3" d="M1156.61,503.49l-2.46-7.82a1.16,1.16,0,0,0-1.12-.84H1137.2a1.29,1.29,0,0,0-1.24,1.63l2.46,7.83a1.17,1.17,0,0,0,1.13.83h15.83A1.29,1.29,0,0,0,1156.61,503.49Z"/><path class="cls-3" d="M1160.81,517.77l-2.46-7.82a1.17,1.17,0,0,0-1.12-.84h-15.84a1.29,1.29,0,0,0-1.23,1.64l2.46,7.82a1.16,1.16,0,0,0,1.12.83h15.84A1.29,1.29,0,0,0,1160.81,517.77Z"/><path class="cls-3" d="M1201.52,489.36l-2.46-7.82a1.17,1.17,0,0,0-1.12-.84H1182.1a1.29,1.29,0,0,0-1.23,1.63l2.46,7.83a1.17,1.17,0,0,0,1.13.83h15.83A1.29,1.29,0,0,0,1201.52,489.36Z"/><path class="cls-3" d="M1206.53,503.49l-2.46-7.82a1.17,1.17,0,0,0-1.13-.84h-15.83a1.29,1.29,0,0,0-1.23,1.63l2.46,7.83a1.17,1.17,0,0,0,1.12.83h15.83A1.29,1.29,0,0,0,1206.53,503.49Z"/><path class="cls-3" d="M1210.73,517.77l-2.46-7.82a1.17,1.17,0,0,0-1.13-.84h-15.83a1.29,1.29,0,0,0-1.23,1.64l2.46,7.82a1.15,1.15,0,0,0,1.12.83h15.83A1.29,1.29,0,0,0,1210.73,517.77Z"/><line class="cls-3" x1="1157.53" y1="485.13" x2="1171.53" y2="485.13"/><line class="cls-3" x1="1161.99" y1="499.2" x2="1176" y2="499.2"/><line class="cls-3" x1="1167.01" y1="514.26" x2="1181.01" y2="514.26"/><line class="cls-3" x1="1206.58" y1="485.13" x2="1221.08" y2="485.13"/><line class="cls-3" x1="1213.29" y1="499.2" x2="1227.78" y2="499.2"/><line class="cls-3" x1="1219.05" y1="514.26" x2="1233.55" y2="514.26"/></g><g id="button-2" data-name="button"><path class="cls-3" d="M1033.55,547.61l-20.7-.12c-3.86,0-8.35-3.15-10-7l-.35-.8c-1.68-3.85.08-7,3.93-6.93l21.24.12"/><ellipse class="cls-3" cx="1039.7" cy="539.99" rx="9.15" ry="14.21" transform="translate(-32.18 1012.89) rotate(-51.25)"/></g></g></g><line id="line" class="cls-1" x1="3" y1="589.19" x2="1682.56" y2="589.19"/></g></g></g></svg>